<svg width="500" height="365" viewBox="0 0 500 365" fill="none" xmlns="http://www.w3.org/2000/svg">
<rect width="500" height="365"/>
<rect x="449.75" y="147.25" width="11.5" height="399.5" transform="rotate(90 449.75 147.25)" fill="#5B9CD6" fill-opacity="0.9" stroke="#43729B" stroke-width="0.5"/>
<rect width="33" height="13" transform="matrix(1 0 0 -1 204 186)" fill="url(#paint0_linear)"/>
<line x1="204" y1="172.5" x2="237" y2="172.5" stroke="#4E4E4E"/>
<path d="M211 173L205 179" stroke="#888888" stroke-width="0.5"/>
<path d="M234 173L228 179" stroke="#888888" stroke-width="0.5"/>
<path d="M226 173L220 179" stroke="#888888" stroke-width="0.5"/>
<path d="M218 173L212 179" stroke="#888888" stroke-width="0.5"/>
<rect width="33" height="13" transform="matrix(1 0 0 -1 34 186)" fill="url(#paint1_linear)"/>
<line x1="34" y1="172.5" x2="67" y2="172.5" stroke="#4E4E4E"/>
<path d="M41 173L35 179" stroke="#888888" stroke-width="0.5"/>
<path d="M64 173L58 179" stroke="#888888" stroke-width="0.5"/>
<path d="M56 173L50 179" stroke="#888888" stroke-width="0.5"/>
<path d="M48 173L42 179" stroke="#888888" stroke-width="0.5"/>
<rect width="33" height="13" transform="matrix(1 0 0 -1 433 186)" fill="url(#paint2_linear)"/>
<line x1="433" y1="172.5" x2="466" y2="172.5" stroke="#4E4E4E"/>
<path d="M440 173L434 179" stroke="#888888" stroke-width="0.5"/>
<path d="M463 173L457 179" stroke="#888888" stroke-width="0.5"/>
<path d="M455 173L449 179" stroke="#888888" stroke-width="0.5"/>
<path d="M447 173L441 179" stroke="#888888" stroke-width="0.5"/>
<path d="M43.5718 171.5L50.5 159.5L57.4282 171.5H43.5718Z" fill="#C4C4C4" stroke="#4E4E4E" stroke-width="0.5"/>
<path d="M213.572 171.5L220.5 159.5L227.428 171.5H213.572Z" fill="#C4C4C4" stroke="#4E4E4E" stroke-width="0.5"/>
<circle cx="449.5" cy="165.5" r="6.25" fill="#C4C4C4" stroke="#4E4E4E" stroke-width="0.5"/>
<rect x="50.25" y="129.25" width="169.5" height="17.5" fill="#E4E4E4" fill-opacity="0.85" stroke="#4E4E4E" stroke-width="0.5"/>
<line x1="60.25" y1="129" x2="60.25" y2="147" stroke="#4E4E4E" stroke-width="0.5"/>
<line x1="70.25" y1="129" x2="70.25" y2="147" stroke="#4E4E4E" stroke-width="0.5"/>
<line x1="80.25" y1="129" x2="80.25" y2="147" stroke="#4E4E4E" stroke-width="0.5"/>
<line x1="90.25" y1="129" x2="90.25" y2="147" stroke="#4E4E4E" stroke-width="0.5"/>
<line x1="100.25" y1="129" x2="100.25" y2="147" stroke="#4E4E4E" stroke-width="0.5"/>
<line x1="110.25" y1="129" x2="110.25" y2="147" stroke="#4E4E4E" stroke-width="0.5"/>
<line x1="120.25" y1="129" x2="120.25" y2="147" stroke="#4E4E4E" stroke-width="0.5"/>
<line x1="130.25" y1="129" x2="130.25" y2="147" stroke="#4E4E4E" stroke-width="0.5"/>
<line x1="140.25" y1="129" x2="140.25" y2="147" stroke="#4E4E4E" stroke-width="0.5"/>
<line x1="150.25" y1="129" x2="150.25" y2="147" stroke="#4E4E4E" stroke-width="0.5"/>
<line x1="160.25" y1="129" x2="160.25" y2="147" stroke="#4E4E4E" stroke-width="0.5"/>
<line x1="170.25" y1="129" x2="170.25" y2="147" stroke="#4E4E4E" stroke-width="0.5"/>
<line x1="180.25" y1="129" x2="180.25" y2="147" stroke="#4E4E4E" stroke-width="0.5"/>
<line x1="190.25" y1="129" x2="190.25" y2="147" stroke="#4E4E4E" stroke-width="0.5"/>
<line x1="200.25" y1="129" x2="200.25" y2="147" stroke="#4E4E4E" stroke-width="0.5"/>
<line x1="210.25" y1="129" x2="210.25" y2="147" stroke="#4E4E4E" stroke-width="0.5"/>
<line x1="220.5" y1="196.5" x2="220.5" y2="278.5" stroke="#A2A2A2" stroke-linecap="round"/>
<path d="M449 196L449 279" stroke="#A2A2A2" stroke-linecap="round"/>
<line x1="50.5" y1="196.5" x2="50.5" y2="278.5" stroke="#A2A2A2" stroke-linecap="round"/>
<path d="M221.823 258.823C221.726 258.921 221.726 259.079 221.823 259.177L223.414 260.768C223.512 260.865 223.67 260.865 223.768 260.768C223.865 260.67 223.865 260.512 223.768 260.414L222.354 259L223.768 257.586C223.865 257.488 223.865 257.33 223.768 257.232C223.67 257.135 223.512 257.135 223.414 257.232L221.823 258.823ZM448.177 259.177C448.274 259.079 448.274 258.921 448.177 258.823L446.586 257.232C446.488 257.135 446.33 257.135 446.232 257.232C446.135 257.33 446.135 257.488 446.232 257.586L447.646 259L446.232 260.414C446.135 260.512 446.135 260.67 446.232 260.768C446.33 260.865 446.488 260.865 446.586 260.768L448.177 259.177ZM222 259.25L448 259.25L448 258.75L222 258.75L222 259.25Z" fill="#B8B8B8"/>
<path d="M51.8232 258.823C51.7256 258.921 51.7256 259.079 51.8232 259.177L53.4142 260.768C53.5118 260.865 53.6701 260.865 53.7678 260.768C53.8654 260.67 53.8654 260.512 53.7678 260.414L52.3536 259L53.7678 257.586C53.8654 257.488 53.8654 257.33 53.7678 257.232C53.6701 257.135 53.5118 257.135 53.4142 257.232L51.8232 258.823ZM219.177 259.177C219.274 259.079 219.274 258.921 219.177 258.823L217.586 257.232C217.488 257.135 217.33 257.135 217.232 257.232C217.135 257.33 217.135 257.488 217.232 257.586L218.646 259L217.232 260.414C217.135 260.512 217.135 260.67 217.232 260.768C217.33 260.865 217.488 260.865 217.586 260.768L219.177 259.177ZM52 259.25L219 259.25L219 258.75L52 258.75L52 259.25Z" fill="#B8B8B8"/>
<path d="M123.065 276.048H125.221V269.209C125.221 269.004 125.228 268.796 125.242 268.586L123.45 270.119C123.403 270.156 123.356 270.184 123.31 270.203C123.263 270.217 123.219 270.224 123.177 270.224C123.107 270.224 123.044 270.21 122.988 270.182C122.932 270.149 122.89 270.112 122.862 270.07L122.47 269.531L125.452 266.948H126.467V276.048H128.441V277H123.065V276.048ZM133.384 266.857C133.808 266.857 134.205 266.92 134.574 267.046C134.942 267.172 135.26 267.356 135.526 267.599C135.796 267.837 136.009 268.129 136.163 268.474C136.317 268.819 136.394 269.211 136.394 269.65C136.394 270.023 136.338 270.369 136.226 270.686C136.114 271.003 135.962 271.309 135.771 271.603C135.579 271.892 135.358 272.175 135.106 272.45C134.858 272.721 134.595 272.998 134.315 273.283L131.676 275.985C131.862 275.934 132.051 275.894 132.243 275.866C132.434 275.833 132.618 275.817 132.796 275.817H136.156C136.291 275.817 136.398 275.857 136.478 275.936C136.557 276.015 136.597 276.118 136.597 276.244V277H129.905V276.573C129.905 276.484 129.921 276.393 129.954 276.3C129.991 276.207 130.049 276.12 130.129 276.041L133.342 272.814C133.608 272.543 133.85 272.284 134.07 272.037C134.289 271.785 134.476 271.533 134.63 271.281C134.788 271.029 134.91 270.775 134.994 270.518C135.078 270.257 135.12 269.979 135.12 269.685C135.12 269.391 135.073 269.134 134.98 268.915C134.886 268.691 134.758 268.507 134.595 268.362C134.431 268.217 134.24 268.11 134.021 268.04C133.801 267.965 133.566 267.928 133.314 267.928C133.062 267.928 132.828 267.965 132.614 268.04C132.399 268.115 132.208 268.22 132.04 268.355C131.876 268.486 131.736 268.642 131.62 268.824C131.508 269.006 131.428 269.207 131.382 269.426C131.344 269.561 131.288 269.659 131.214 269.72C131.139 269.781 131.041 269.811 130.92 269.811C130.896 269.811 130.871 269.811 130.843 269.811C130.819 269.806 130.791 269.802 130.759 269.797L130.108 269.685C130.173 269.228 130.299 268.824 130.486 268.474C130.672 268.119 130.908 267.823 131.193 267.585C131.482 267.347 131.811 267.167 132.18 267.046C132.553 266.92 132.954 266.857 133.384 266.857ZM141.307 277V270.973L140.523 270.882C140.425 270.859 140.343 270.824 140.278 270.777C140.217 270.726 140.187 270.653 140.187 270.56V270.049H141.307V269.363C141.307 268.957 141.363 268.598 141.475 268.285C141.592 267.968 141.755 267.702 141.965 267.487C142.18 267.268 142.436 267.102 142.735 266.99C143.034 266.878 143.37 266.822 143.743 266.822C144.06 266.822 144.354 266.869 144.625 266.962L144.597 267.585C144.592 267.678 144.553 267.734 144.478 267.753C144.403 267.772 144.298 267.781 144.163 267.781H143.946C143.731 267.781 143.535 267.809 143.358 267.865C143.185 267.921 143.036 268.012 142.91 268.138C142.784 268.264 142.686 268.43 142.616 268.635C142.551 268.84 142.518 269.095 142.518 269.398V270.049H144.569V270.952H142.56V277H141.307ZM147.893 277.112C147.333 277.112 146.901 276.956 146.598 276.643C146.299 276.33 146.15 275.88 146.15 275.292V270.952H145.296C145.221 270.952 145.158 270.931 145.107 270.889C145.055 270.842 145.03 270.772 145.03 270.679V270.182L146.192 270.035L146.479 267.844C146.488 267.774 146.518 267.718 146.57 267.676C146.621 267.629 146.686 267.606 146.766 267.606H147.396V270.049H149.426V270.952H147.396V275.208C147.396 275.507 147.468 275.728 147.613 275.873C147.757 276.018 147.944 276.09 148.173 276.09C148.303 276.09 148.415 276.074 148.509 276.041C148.607 276.004 148.691 275.964 148.761 275.922C148.831 275.88 148.889 275.843 148.936 275.81C148.987 275.773 149.031 275.754 149.069 275.754C149.134 275.754 149.192 275.794 149.244 275.873L149.608 276.468C149.393 276.669 149.134 276.827 148.831 276.944C148.527 277.056 148.215 277.112 147.893 277.112Z" fill="white"/>
<path d="M117.733 113.857C118.157 113.857 118.549 113.918 118.909 114.039C119.268 114.16 119.576 114.333 119.833 114.557C120.094 114.781 120.297 115.052 120.442 115.369C120.586 115.686 120.659 116.039 120.659 116.426C120.659 116.743 120.617 117.028 120.533 117.28C120.453 117.527 120.337 117.747 120.183 117.938C120.033 118.125 119.851 118.283 119.637 118.414C119.422 118.545 119.182 118.65 118.916 118.729C119.569 118.902 120.059 119.191 120.386 119.597C120.717 120.003 120.883 120.512 120.883 121.123C120.883 121.585 120.794 122 120.617 122.369C120.444 122.738 120.206 123.053 119.903 123.314C119.599 123.571 119.245 123.769 118.839 123.909C118.437 124.044 118.006 124.112 117.544 124.112C117.012 124.112 116.557 124.047 116.179 123.916C115.801 123.781 115.481 123.596 115.22 123.363C114.958 123.13 114.744 122.854 114.576 122.537C114.408 122.215 114.265 121.867 114.149 121.494L114.681 121.27C114.779 121.228 114.877 121.207 114.975 121.207C115.068 121.207 115.15 121.228 115.22 121.27C115.294 121.307 115.35 121.368 115.388 121.452C115.397 121.471 115.406 121.492 115.416 121.515C115.425 121.534 115.434 121.555 115.444 121.578C115.509 121.713 115.588 121.867 115.682 122.04C115.775 122.208 115.901 122.367 116.06 122.516C116.218 122.665 116.414 122.791 116.648 122.894C116.886 122.997 117.18 123.048 117.53 123.048C117.88 123.048 118.185 122.992 118.447 122.88C118.713 122.763 118.932 122.614 119.105 122.432C119.282 122.25 119.415 122.047 119.504 121.823C119.592 121.599 119.637 121.377 119.637 121.158C119.637 120.887 119.599 120.64 119.525 120.416C119.455 120.192 119.324 119.998 119.133 119.835C118.946 119.672 118.685 119.543 118.349 119.45C118.017 119.357 117.59 119.31 117.068 119.31V118.407C117.492 118.402 117.854 118.356 118.153 118.267C118.456 118.178 118.703 118.057 118.895 117.903C119.086 117.749 119.224 117.565 119.308 117.35C119.396 117.135 119.441 116.897 119.441 116.636C119.441 116.347 119.394 116.095 119.301 115.88C119.212 115.665 119.088 115.488 118.93 115.348C118.771 115.208 118.582 115.103 118.363 115.033C118.148 114.963 117.915 114.928 117.663 114.928C117.411 114.928 117.177 114.965 116.963 115.04C116.748 115.115 116.557 115.22 116.389 115.355C116.225 115.486 116.088 115.644 115.976 115.831C115.864 116.013 115.78 116.211 115.724 116.426C115.686 116.561 115.63 116.659 115.556 116.72C115.481 116.781 115.385 116.811 115.269 116.811C115.245 116.811 115.22 116.811 115.192 116.811C115.168 116.806 115.14 116.802 115.108 116.797L114.457 116.685C114.522 116.228 114.648 115.824 114.835 115.474C115.021 115.119 115.257 114.823 115.542 114.585C115.831 114.347 116.16 114.167 116.529 114.046C116.902 113.92 117.303 113.857 117.733 113.857ZM122.13 123.23C122.13 123.109 122.151 122.994 122.193 122.887C122.239 122.78 122.3 122.686 122.375 122.607C122.454 122.528 122.547 122.465 122.655 122.418C122.762 122.371 122.876 122.348 122.998 122.348C123.119 122.348 123.233 122.371 123.341 122.418C123.448 122.465 123.541 122.528 123.621 122.607C123.7 122.686 123.761 122.78 123.803 122.887C123.849 122.994 123.873 123.109 123.873 123.23C123.873 123.356 123.849 123.473 123.803 123.58C123.761 123.683 123.7 123.774 123.621 123.853C123.541 123.932 123.448 123.993 123.341 124.035C123.233 124.082 123.119 124.105 122.998 124.105C122.876 124.105 122.762 124.082 122.655 124.035C122.547 123.993 122.454 123.932 122.375 123.853C122.3 123.774 122.239 123.683 122.193 123.58C122.151 123.473 122.13 123.356 122.13 123.23ZM129.03 117.854C129.432 117.854 129.812 117.922 130.171 118.057C130.531 118.188 130.846 118.381 131.116 118.638C131.387 118.89 131.602 119.203 131.76 119.576C131.919 119.945 131.998 120.367 131.998 120.843C131.998 121.305 131.914 121.734 131.746 122.131C131.578 122.528 131.343 122.873 131.039 123.167C130.741 123.461 130.379 123.692 129.954 123.86C129.53 124.028 129.063 124.112 128.554 124.112C128.05 124.112 127.593 124.033 127.182 123.874C126.776 123.711 126.429 123.482 126.139 123.188C125.85 122.889 125.626 122.53 125.467 122.11C125.313 121.685 125.236 121.212 125.236 120.689C125.236 120.25 125.334 119.784 125.53 119.289C125.726 118.794 126.037 118.262 126.461 117.693L129.002 114.27C129.068 114.186 129.159 114.116 129.275 114.06C129.392 113.999 129.525 113.969 129.674 113.969H130.78L127.301 118.372C127.539 118.209 127.803 118.083 128.092 117.994C128.382 117.901 128.694 117.854 129.03 117.854ZM126.44 120.906C126.44 121.228 126.487 121.522 126.58 121.788C126.674 122.054 126.809 122.283 126.986 122.474C127.168 122.665 127.388 122.815 127.644 122.922C127.906 123.025 128.202 123.076 128.533 123.076C128.869 123.076 129.173 123.022 129.443 122.915C129.714 122.808 129.945 122.658 130.136 122.467C130.332 122.276 130.482 122.049 130.584 121.788C130.692 121.527 130.745 121.242 130.745 120.934C130.745 120.607 130.694 120.313 130.591 120.052C130.489 119.786 130.344 119.562 130.157 119.38C129.971 119.193 129.747 119.051 129.485 118.953C129.224 118.855 128.937 118.806 128.624 118.806C128.288 118.806 127.985 118.864 127.714 118.981C127.444 119.093 127.213 119.247 127.021 119.443C126.835 119.634 126.69 119.858 126.587 120.115C126.489 120.367 126.44 120.631 126.44 120.906ZM137.626 113.689V119.758H137.948C138.041 119.758 138.118 119.746 138.179 119.723C138.239 119.695 138.307 119.641 138.382 119.562L140.622 117.161C140.692 117.086 140.762 117.026 140.832 116.979C140.902 116.932 140.995 116.909 141.112 116.909H142.246L139.635 119.688C139.569 119.767 139.504 119.837 139.439 119.898C139.378 119.959 139.308 120.012 139.229 120.059C139.313 120.115 139.387 120.18 139.453 120.255C139.523 120.325 139.588 120.407 139.649 120.5L142.421 124H141.301C141.198 124 141.109 123.981 141.035 123.944C140.965 123.902 140.897 123.839 140.832 123.755L138.501 120.85C138.431 120.752 138.361 120.689 138.291 120.661C138.221 120.628 138.116 120.612 137.976 120.612H137.626V124H136.373V113.689H137.626ZM143.777 124.147C143.712 124.31 143.614 124.432 143.483 124.511C143.357 124.59 143.227 124.63 143.091 124.63H142.566L146.773 114.151C146.834 114.002 146.92 113.887 147.032 113.808C147.144 113.729 147.277 113.689 147.431 113.689H147.956L143.777 124.147ZM148.97 124V117.973L148.186 117.882C148.088 117.859 148.006 117.824 147.941 117.777C147.88 117.726 147.85 117.653 147.85 117.56V117.049H148.97V116.363C148.97 115.957 149.026 115.598 149.138 115.285C149.255 114.968 149.418 114.702 149.628 114.487C149.843 114.268 150.099 114.102 150.398 113.99C150.697 113.878 151.033 113.822 151.406 113.822C151.723 113.822 152.017 113.869 152.288 113.962L152.26 114.585C152.255 114.678 152.216 114.734 152.141 114.753C152.066 114.772 151.961 114.781 151.826 114.781H151.609C151.394 114.781 151.198 114.809 151.021 114.865C150.848 114.921 150.699 115.012 150.573 115.138C150.447 115.264 150.349 115.43 150.279 115.635C150.214 115.84 150.181 116.095 150.181 116.398V117.049H152.232V117.952H150.223V124H148.97ZM155.556 124.112C154.996 124.112 154.564 123.956 154.261 123.643C153.962 123.33 153.813 122.88 153.813 122.292V117.952H152.959C152.884 117.952 152.821 117.931 152.77 117.889C152.718 117.842 152.693 117.772 152.693 117.679V117.182L153.855 117.035L154.142 114.844C154.151 114.774 154.181 114.718 154.233 114.676C154.284 114.629 154.349 114.606 154.429 114.606H155.059V117.049H157.089V117.952H155.059V122.208C155.059 122.507 155.131 122.728 155.276 122.873C155.42 123.018 155.607 123.09 155.836 123.09C155.966 123.09 156.078 123.074 156.172 123.041C156.27 123.004 156.354 122.964 156.424 122.922C156.494 122.88 156.552 122.843 156.599 122.81C156.65 122.773 156.694 122.754 156.732 122.754C156.797 122.754 156.855 122.794 156.907 122.873L157.271 123.468C157.056 123.669 156.797 123.827 156.494 123.944C156.19 124.056 155.878 124.112 155.556 124.112Z" fill="white"/>
<path d="M323.065 276.048H325.221V269.209C325.221 269.004 325.228 268.796 325.242 268.586L323.45 270.119C323.403 270.156 323.356 270.184 323.31 270.203C323.263 270.217 323.219 270.224 323.177 270.224C323.107 270.224 323.044 270.21 322.988 270.182C322.932 270.149 322.89 270.112 322.862 270.07L322.47 269.531L325.452 266.948H326.467V276.048H328.441V277H323.065V276.048ZM333.727 270.854C334.128 270.854 334.508 270.922 334.868 271.057C335.227 271.188 335.542 271.381 335.813 271.638C336.083 271.89 336.298 272.203 336.457 272.576C336.615 272.945 336.695 273.367 336.695 273.843C336.695 274.305 336.611 274.734 336.443 275.131C336.275 275.528 336.039 275.873 335.736 276.167C335.437 276.461 335.075 276.692 334.651 276.86C334.226 277.028 333.759 277.112 333.251 277.112C332.747 277.112 332.289 277.033 331.879 276.874C331.473 276.711 331.125 276.482 330.836 276.188C330.546 275.889 330.322 275.53 330.164 275.11C330.01 274.685 329.933 274.212 329.933 273.689C329.933 273.25 330.031 272.784 330.227 272.289C330.423 271.794 330.733 271.262 331.158 270.693L333.699 267.27C333.764 267.186 333.855 267.116 333.972 267.06C334.088 266.999 334.221 266.969 334.371 266.969H335.477L331.998 271.372C332.236 271.209 332.499 271.083 332.789 270.994C333.078 270.901 333.391 270.854 333.727 270.854ZM331.137 273.906C331.137 274.228 331.183 274.522 331.277 274.788C331.37 275.054 331.505 275.283 331.683 275.474C331.865 275.665 332.084 275.815 332.341 275.922C332.602 276.025 332.898 276.076 333.23 276.076C333.566 276.076 333.869 276.022 334.14 275.915C334.41 275.808 334.641 275.658 334.833 275.467C335.029 275.276 335.178 275.049 335.281 274.788C335.388 274.527 335.442 274.242 335.442 273.934C335.442 273.607 335.39 273.313 335.288 273.052C335.185 272.786 335.04 272.562 334.854 272.38C334.667 272.193 334.443 272.051 334.182 271.953C333.92 271.855 333.633 271.806 333.321 271.806C332.985 271.806 332.681 271.864 332.411 271.981C332.14 272.093 331.909 272.247 331.718 272.443C331.531 272.634 331.386 272.858 331.284 273.115C331.186 273.367 331.137 273.631 331.137 273.906ZM341.307 277V270.973L340.523 270.882C340.425 270.859 340.343 270.824 340.278 270.777C340.217 270.726 340.187 270.653 340.187 270.56V270.049H341.307V269.363C341.307 268.957 341.363 268.598 341.475 268.285C341.592 267.968 341.755 267.702 341.965 267.487C342.18 267.268 342.436 267.102 342.735 266.99C343.034 266.878 343.37 266.822 343.743 266.822C344.06 266.822 344.354 266.869 344.625 266.962L344.597 267.585C344.592 267.678 344.553 267.734 344.478 267.753C344.403 267.772 344.298 267.781 344.163 267.781H343.946C343.731 267.781 343.535 267.809 343.358 267.865C343.185 267.921 343.036 268.012 342.91 268.138C342.784 268.264 342.686 268.43 342.616 268.635C342.551 268.84 342.518 269.095 342.518 269.398V270.049H344.569V270.952H342.56V277H341.307ZM347.893 277.112C347.333 277.112 346.901 276.956 346.598 276.643C346.299 276.33 346.15 275.88 346.15 275.292V270.952H345.296C345.221 270.952 345.158 270.931 345.107 270.889C345.055 270.842 345.03 270.772 345.03 270.679V270.182L346.192 270.035L346.479 267.844C346.488 267.774 346.518 267.718 346.57 267.676C346.621 267.629 346.686 267.606 346.766 267.606H347.396V270.049H349.426V270.952H347.396V275.208C347.396 275.507 347.468 275.728 347.613 275.873C347.757 276.018 347.944 276.09 348.173 276.09C348.303 276.09 348.415 276.074 348.509 276.041C348.607 276.004 348.691 275.964 348.761 275.922C348.831 275.88 348.889 275.843 348.936 275.81C348.987 275.773 349.031 275.754 349.069 275.754C349.134 275.754 349.192 275.794 349.244 275.873L349.608 276.468C349.393 276.669 349.134 276.827 348.831 276.944C348.527 277.056 348.215 277.112 347.893 277.112Z" fill="white"/>
<defs>
<linearGradient id="paint0_linear" x1="16.5" y1="0" x2="16.5" y2="13" gradientUnits="userSpaceOnUse">
<stop stop-color="#C4C4C4" stop-opacity="0"/>
<stop offset="0.53125" stop-color="#CFD4B5" stop-opacity="0.385417"/>
<stop offset="0.880208" stop-color="#FAECA2" stop-opacity="0.74"/>
</linearGradient>
<linearGradient id="paint1_linear" x1="16.5" y1="0" x2="16.5" y2="13" gradientUnits="userSpaceOnUse">
<stop stop-color="#C4C4C4" stop-opacity="0"/>
<stop offset="0.53125" stop-color="#CFD4B5" stop-opacity="0.385417"/>
<stop offset="0.880208" stop-color="#FAECA2" stop-opacity="0.74"/>
</linearGradient>
<linearGradient id="paint2_linear" x1="16.5" y1="0" x2="16.5" y2="13" gradientUnits="userSpaceOnUse">
<stop stop-color="#C4C4C4" stop-opacity="0"/>
<stop offset="0.53125" stop-color="#CFD4B5" stop-opacity="0.385417"/>
<stop offset="0.880208" stop-color="#FAECA2" stop-opacity="0.74"/>
</linearGradient>
</defs>
</svg>
