<svg width="465" height="234" viewBox="0 0 465 234" fill="none" xmlns="http://www.w3.org/2000/svg">
<rect x="49" y="33" width="28" height="28" fill="#C4C4C4"/>
<rect width="50" height="10" transform="matrix(1 0 0 -1 72 222)" fill="url(#paint0_linear)"/>
<line x1="72" y1="211.5" x2="122" y2="211.5" stroke="#4E4E4E"/>
<path d="M87 212L84 216.286" stroke="#888888" stroke-width="0.5"/>
<path d="M90 212L87 216.286" stroke="#888888" stroke-width="0.5"/>
<path d="M93 212L90 216.286" stroke="#888888" stroke-width="0.5"/>
<path d="M96 212L93 216.286" stroke="#888888" stroke-width="0.5"/>
<path d="M99 212L96 216.286" stroke="#888888" stroke-width="0.5"/>
<path d="M102 212L99 216.286" stroke="#888888" stroke-width="0.5"/>
<path d="M105 212L102 216.286" stroke="#888888" stroke-width="0.5"/>
<path d="M108 212L105 216.286" stroke="#888888" stroke-width="0.5"/>
<rect width="50" height="10" transform="matrix(1 0 0 -1 235 222)" fill="url(#paint1_linear)"/>
<line x1="235" y1="211.5" x2="285" y2="211.5" stroke="#4E4E4E"/>
<path d="M250 212L247 216.286" stroke="#888888" stroke-width="0.5"/>
<path d="M253 212L250 216.286" stroke="#888888" stroke-width="0.5"/>
<path d="M256 212L253 216.286" stroke="#888888" stroke-width="0.5"/>
<path d="M259 212L256 216.286" stroke="#888888" stroke-width="0.5"/>
<path d="M262 212L259 216.286" stroke="#888888" stroke-width="0.5"/>
<path d="M265 212L262 216.286" stroke="#888888" stroke-width="0.5"/>
<path d="M268 212L265 216.286" stroke="#888888" stroke-width="0.5"/>
<path d="M271 212L268 216.286" stroke="#888888" stroke-width="0.5"/>
<rect width="50" height="10" transform="matrix(1 0 0 -1 399 222)" fill="url(#paint2_linear)"/>
<line x1="399" y1="211.5" x2="449" y2="211.5" stroke="#4E4E4E"/>
<path d="M414 212L411 216.286" stroke="#888888" stroke-width="0.5"/>
<path d="M417 212L414 216.286" stroke="#888888" stroke-width="0.5"/>
<path d="M420 212L417 216.286" stroke="#888888" stroke-width="0.5"/>
<path d="M423 212L420 216.286" stroke="#888888" stroke-width="0.5"/>
<path d="M426 212L423 216.286" stroke="#888888" stroke-width="0.5"/>
<path d="M429 212L426 216.286" stroke="#888888" stroke-width="0.5"/>
<path d="M432 212L429 216.286" stroke="#888888" stroke-width="0.5"/>
<path d="M435 212L432 216.286" stroke="#888888" stroke-width="0.5"/>
<path d="M88.3536 21.3536C88.5488 21.1583 88.5488 20.8417 88.3536 20.6465L85.1716 17.4645C84.9763 17.2692 84.6597 17.2692 84.4645 17.4645C84.2692 17.6597 84.2692 17.9763 84.4645 18.1716L87.2929 21L84.4645 23.8284C84.2692 24.0237 84.2692 24.3403 84.4645 24.5355C84.6597 24.7308 84.9763 24.7308 85.1716 24.5355L88.3536 21.3536ZM38 21.5L88 21.5L88 20.5L38 20.5L38 21.5Z" fill="#B8B8B8"/>
<path d="M66.4342 41.969V43.075H61.6182V46.582H65.7342V47.688H61.6182V52H60.2532V41.969H66.4342Z" fill="#4E4E4E"/>
<line x1="259.5" y1="27" x2="259.5" y2="211" stroke="white"/>
<line x1="423.5" y1="27" x2="423.5" y2="211" stroke="white"/>
<line x1="263" y1="23.5" x2="420" y2="23.5" stroke="white"/>
<line x1="99" y1="23.5" x2="256" y2="23.5" stroke="white"/>
<line x1="95.5" y1="27" x2="95.5" y2="211" stroke="white"/>
<circle cx="423.5" cy="23.5" r="3.5" transform="rotate(-180 423.5 23.5)" fill="#CADEFC" stroke="black" stroke-width="0.5"/>
<circle cx="259.5" cy="23.5" r="3.5" transform="rotate(-180 259.5 23.5)" fill="#CADEFC" stroke="black" stroke-width="0.5"/>
<circle cx="95.5" cy="23.5" r="3.5" transform="rotate(-180 95.5 23.5)" fill="#CADEFC" stroke="black" stroke-width="0.5"/>
<defs>
<linearGradient id="paint0_linear" x1="25" y1="0" x2="25" y2="10" gradientUnits="userSpaceOnUse">
<stop stop-color="#C4C4C4" stop-opacity="0"/>
<stop offset="0.53125" stop-color="#CECECE" stop-opacity="0.385417"/>
<stop offset="0.880208" stop-color="#D1D1D1" stop-opacity="0.74"/>
</linearGradient>
<linearGradient id="paint1_linear" x1="25" y1="0" x2="25" y2="10" gradientUnits="userSpaceOnUse">
<stop stop-color="#C4C4C4" stop-opacity="0"/>
<stop offset="0.0001" stop-color="#C4C4C4" stop-opacity="0"/>
<stop offset="0.53125" stop-color="#CECECE" stop-opacity="0.385417"/>
<stop offset="0.880208" stop-color="#D1D1D1" stop-opacity="0.74"/>
</linearGradient>
<linearGradient id="paint2_linear" x1="25" y1="0" x2="25" y2="10" gradientUnits="userSpaceOnUse">
<stop stop-color="#C4C4C4" stop-opacity="0"/>
<stop offset="0.53125" stop-color="#CECECE" stop-opacity="0.385417"/>
<stop offset="0.880208" stop-color="#D1D1D1" stop-opacity="0.74"/>
</linearGradient>
</defs>
</svg>
