<svg width="500" height="365" viewBox="0 0 500 365" fill="none" xmlns="http://www.w3.org/2000/svg">
<rect width="500" height="365"/>
<rect x="432.25" y="133.25" width="6.5" height="183.5" fill="#5B9CD6" stroke="#43729B" stroke-width="0.5"/>
<rect x="105.25" y="133.25" width="6.5" height="183.5" fill="#5B9CD6" fill-opacity="0.9" stroke="#43729B" stroke-width="0.5"/>
<rect x="269.25" y="133.25" width="5.5" height="183.5" fill="#5B9CD6" fill-opacity="0.9" stroke="#43729B" stroke-width="0.5"/>
<rect width="50" height="7" transform="matrix(1 0 0 -1 84 324)" fill="url(#paint0_linear)"/>
<rect x="438.75" y="126.25" width="7.50002" height="333.5" transform="rotate(90 438.75 126.25)" fill="#5B9CD6" stroke="#43729B" stroke-width="0.5"/>
<line x1="84" y1="316.5" x2="134" y2="316.5" stroke="#4E4E4E"/>
<path d="M99 317L96 320" stroke="#888888" stroke-width="0.5"/>
<path d="M102 317L99 320" stroke="#888888" stroke-width="0.5"/>
<path d="M105 317L102 320" stroke="#888888" stroke-width="0.5"/>
<path d="M108 317L105 320" stroke="#888888" stroke-width="0.5"/>
<path d="M111 317L108 320" stroke="#888888" stroke-width="0.5"/>
<path d="M114 317L111 320" stroke="#888888" stroke-width="0.5"/>
<path d="M117 317L114 320" stroke="#888888" stroke-width="0.5"/>
<path d="M120 317L117 320" stroke="#888888" stroke-width="0.5"/>
<rect width="50" height="7" transform="matrix(1 0 0 -1 247 324)" fill="url(#paint1_linear)"/>
<line x1="247" y1="316.5" x2="297" y2="316.5" stroke="#4E4E4E"/>
<path d="M262 317L259 320" stroke="#888888" stroke-width="0.5"/>
<path d="M265 317L262 320" stroke="#888888" stroke-width="0.5"/>
<path d="M268 317L265 320" stroke="#888888" stroke-width="0.5"/>
<path d="M271 317L268 320" stroke="#888888" stroke-width="0.5"/>
<path d="M274 317L271 320" stroke="#888888" stroke-width="0.5"/>
<path d="M277 317L274 320" stroke="#888888" stroke-width="0.5"/>
<path d="M280 317L277 320" stroke="#888888" stroke-width="0.5"/>
<path d="M283 317L280 320" stroke="#888888" stroke-width="0.5"/>
<rect width="50" height="7" transform="matrix(1 0 0 -1 411 324)" fill="url(#paint2_linear)"/>
<line x1="411" y1="316.5" x2="461" y2="316.5" stroke="#4E4E4E"/>
<path d="M426 317L423 320" stroke="#888888" stroke-width="0.5"/>
<path d="M429 317L426 320" stroke="#888888" stroke-width="0.5"/>
<path d="M432 317L429 320" stroke="#888888" stroke-width="0.5"/>
<path d="M435 317L432 320" stroke="#888888" stroke-width="0.5"/>
<path d="M438 317L435 320" stroke="#888888" stroke-width="0.5"/>
<path d="M441 317L438 320" stroke="#888888" stroke-width="0.5"/>
<path d="M444 317L441 320" stroke="#888888" stroke-width="0.5"/>
<path d="M447 317L444 320" stroke="#888888" stroke-width="0.5"/>
<line x1="28.5" y1="316.5" x2="77.5" y2="316.5" stroke="#A2A2A2" stroke-linecap="round"/>
<line x1="28.5" y1="125.5" x2="77.5" y2="125.5" stroke="#A2A2A2" stroke-linecap="round"/>
<path d="M51.8232 315.177C51.9209 315.274 52.0791 315.274 52.1768 315.177L53.7678 313.586C53.8654 313.488 53.8654 313.33 53.7678 313.232C53.6701 313.135 53.5118 313.135 53.4142 313.232L52 314.646L50.5858 313.232C50.4882 313.135 50.3299 313.135 50.2322 313.232C50.1346 313.33 50.1346 313.488 50.2322 313.586L51.8232 315.177ZM51.75 237L51.75 315L52.25 315L52.25 237L51.75 237Z" fill="#B8B8B8"/>
<path d="M52.1768 127.823C52.0791 127.726 51.9209 127.726 51.8232 127.823L50.2322 129.414C50.1346 129.512 50.1346 129.67 50.2322 129.768C50.3299 129.865 50.4882 129.865 50.5858 129.768L52 128.354L53.4142 129.768C53.5118 129.865 53.6701 129.865 53.7678 129.768C53.8654 129.67 53.8654 129.512 53.7678 129.414L52.1768 127.823ZM52.25 206L52.25 128L51.75 128L51.75 206L52.25 206Z" fill="#B8B8B8"/>
<line x1="438.5" y1="102.5" x2="438.5" y2="35.5" stroke="#A2A2A2" stroke-linecap="round"/>
<line x1="105.5" y1="102.5" x2="105.5" y2="35.5" stroke="#A2A2A2" stroke-linecap="round"/>
<line x1="271.5" y1="102.5" x2="271.5" y2="35.5" stroke="#A2A2A2" stroke-linecap="round"/>
<line x1="188.5" y1="68.5" x2="188.5" y2="34.5" stroke="#A2A2A2" stroke-linecap="round"/>
<path d="M274.823 54.8232C274.726 54.9209 274.726 55.0791 274.823 55.1768L276.414 56.7678C276.512 56.8654 276.67 56.8654 276.768 56.7678C276.865 56.6701 276.865 56.5118 276.768 56.4142L275.354 55L276.768 53.5858C276.865 53.4882 276.865 53.3299 276.768 53.2322C276.67 53.1346 276.512 53.1346 276.414 53.2322L274.823 54.8232ZM435.177 55.1768C435.274 55.0792 435.274 54.9209 435.177 54.8232L433.586 53.2322C433.488 53.1346 433.33 53.1346 433.232 53.2322C433.135 53.3299 433.135 53.4882 433.232 53.5858L434.646 55L433.232 56.4142C433.135 56.5119 433.135 56.6701 433.232 56.7678C433.33 56.8654 433.488 56.8654 433.586 56.7678L435.177 55.1768ZM275 55.25L435 55.25L435 54.75L275 54.75L275 55.25Z" fill="#B8B8B8"/>
<path d="M107.823 54.8232C107.726 54.9209 107.726 55.0791 107.823 55.1768L109.414 56.7678C109.512 56.8654 109.67 56.8654 109.768 56.7678C109.865 56.6701 109.865 56.5118 109.768 56.4142L108.354 55L109.768 53.5858C109.865 53.4882 109.865 53.3299 109.768 53.2322C109.67 53.1346 109.512 53.1346 109.414 53.2322L107.823 54.8232ZM186.177 55.1768C186.274 55.0792 186.274 54.9209 186.177 54.8232L184.586 53.2322C184.488 53.1346 184.33 53.1346 184.232 53.2322C184.135 53.3299 184.135 53.4882 184.232 53.5858L185.646 55L184.232 56.4142C184.135 56.5119 184.135 56.6701 184.232 56.7678C184.33 56.8654 184.488 56.8654 184.586 56.7678L186.177 55.1768ZM108 55.25L186 55.25L186 54.75L108 54.75L108 55.25Z" fill="#B8B8B8"/>
<path d="M190.823 54.8232C190.726 54.9209 190.726 55.0791 190.823 55.1768L192.414 56.7678C192.512 56.8654 192.67 56.8654 192.768 56.7678C192.865 56.6701 192.865 56.5118 192.768 56.4142L191.354 55L192.768 53.5858C192.865 53.4882 192.865 53.3299 192.768 53.2322C192.67 53.1346 192.512 53.1346 192.414 53.2322L190.823 54.8232ZM269.177 55.1768C269.274 55.0792 269.274 54.9209 269.177 54.8232L267.586 53.2322C267.488 53.1346 267.33 53.1346 267.232 53.2322C267.135 53.3299 267.135 53.4882 267.232 53.5858L268.646 55L267.232 56.4142C267.135 56.5119 267.135 56.6701 267.232 56.7678C267.33 56.8654 267.488 56.8654 267.586 56.7678L269.177 55.1768ZM191 55.25L269 55.25L269 54.75L191 54.75L191 55.25Z" fill="#B8B8B8"/>
<path d="M139.16 41.969V42.529C139.16 42.6877 139.142 42.8183 139.104 42.921C139.072 43.0237 139.037 43.11 138.999 43.18L134.848 51.559C134.788 51.6803 134.704 51.7853 134.596 51.874C134.489 51.958 134.344 52 134.162 52H133.273L137.487 43.726C137.548 43.6093 137.609 43.502 137.669 43.404C137.735 43.306 137.807 43.2127 137.886 43.124H132.65C132.571 43.124 132.499 43.0937 132.433 43.033C132.373 42.9677 132.342 42.8953 132.342 42.816V41.969H139.16ZM140.309 51.23C140.309 51.1087 140.33 50.9943 140.372 50.887C140.419 50.7797 140.48 50.6863 140.554 50.607C140.634 50.5277 140.727 50.4647 140.834 50.418C140.942 50.3713 141.056 50.348 141.177 50.348C141.299 50.348 141.413 50.3713 141.52 50.418C141.628 50.4647 141.721 50.5277 141.8 50.607C141.88 50.6863 141.94 50.7797 141.982 50.887C142.029 50.9943 142.052 51.1087 142.052 51.23C142.052 51.356 142.029 51.4727 141.982 51.58C141.94 51.6827 141.88 51.7737 141.8 51.853C141.721 51.9323 141.628 51.993 141.52 52.035C141.413 52.0817 141.299 52.105 141.177 52.105C141.056 52.105 140.942 52.0817 140.834 52.035C140.727 51.993 140.634 51.9323 140.554 51.853C140.48 51.7737 140.419 51.6827 140.372 51.58C140.33 51.4727 140.309 51.356 140.309 51.23ZM149.506 42.515C149.506 42.6923 149.45 42.8393 149.338 42.956C149.226 43.068 149.037 43.124 148.771 43.124H145.621L145.159 45.756C145.682 45.644 146.165 45.588 146.608 45.588C147.131 45.588 147.59 45.665 147.987 45.819C148.388 45.973 148.724 46.1853 148.995 46.456C149.266 46.7267 149.469 47.0463 149.604 47.415C149.744 47.7837 149.814 48.185 149.814 48.619C149.814 49.151 149.721 49.6317 149.534 50.061C149.347 50.4903 149.091 50.859 148.764 51.167C148.442 51.4703 148.062 51.7037 147.623 51.867C147.184 52.0303 146.711 52.112 146.202 52.112C145.908 52.112 145.626 52.0817 145.355 52.021C145.084 51.965 144.832 51.888 144.599 51.79C144.366 51.692 144.149 51.58 143.948 51.454C143.747 51.328 143.57 51.195 143.416 51.055L143.794 50.523C143.878 50.4017 143.99 50.341 144.13 50.341C144.219 50.341 144.321 50.3783 144.438 50.453C144.559 50.523 144.704 50.6023 144.872 50.691C145.04 50.7797 145.236 50.8613 145.46 50.936C145.689 51.006 145.959 51.041 146.272 51.041C146.622 51.041 146.937 50.985 147.217 50.873C147.497 50.761 147.735 50.6023 147.931 50.397C148.132 50.187 148.286 49.9373 148.393 49.648C148.5 49.3587 148.554 49.0343 148.554 48.675C148.554 48.3623 148.507 48.08 148.414 47.828C148.325 47.576 148.188 47.3613 148.001 47.184C147.819 47.0067 147.59 46.869 147.315 46.771C147.04 46.673 146.718 46.624 146.349 46.624C146.097 46.624 145.836 46.645 145.565 46.687C145.294 46.729 145.014 46.7967 144.725 46.89L143.941 46.659L144.753 41.969H149.506V42.515ZM154.79 52V45.973L154.006 45.882C153.908 45.8587 153.827 45.8237 153.761 45.777C153.701 45.7257 153.67 45.6533 153.67 45.56V45.049H154.79V44.363C154.79 43.957 154.846 43.5977 154.958 43.285C155.075 42.9677 155.238 42.7017 155.448 42.487C155.663 42.2677 155.92 42.102 156.218 41.99C156.517 41.878 156.853 41.822 157.226 41.822C157.544 41.822 157.838 41.8687 158.108 41.962L158.08 42.585C158.076 42.6783 158.036 42.7343 157.961 42.753C157.887 42.7717 157.782 42.781 157.646 42.781H157.429C157.215 42.781 157.019 42.809 156.841 42.865C156.669 42.921 156.519 43.012 156.393 43.138C156.267 43.264 156.169 43.4297 156.099 43.635C156.034 43.8403 156.001 44.0947 156.001 44.398V45.049H158.052V45.952H156.043V52H154.79ZM161.376 52.112C160.816 52.112 160.384 51.9557 160.081 51.643C159.782 51.3303 159.633 50.88 159.633 50.292V45.952H158.779C158.704 45.952 158.641 45.931 158.59 45.889C158.539 45.8423 158.513 45.7723 158.513 45.679V45.182L159.675 45.035L159.962 42.844C159.971 42.774 160.002 42.718 160.053 42.676C160.104 42.6293 160.17 42.606 160.249 42.606H160.879V45.049H162.909V45.952H160.879V50.208C160.879 50.5067 160.951 50.7283 161.096 50.873C161.241 51.0177 161.427 51.09 161.656 51.09C161.787 51.09 161.899 51.0737 161.992 51.041C162.09 51.0037 162.174 50.964 162.244 50.922C162.314 50.88 162.372 50.8427 162.419 50.81C162.47 50.7727 162.515 50.754 162.552 50.754C162.617 50.754 162.676 50.7937 162.727 50.873L163.091 51.468C162.876 51.6687 162.617 51.8273 162.314 51.944C162.011 52.056 161.698 52.112 161.376 52.112Z" fill="white"/>
<path d="M222.16 41.969V42.529C222.16 42.6877 222.142 42.8183 222.104 42.921C222.072 43.0237 222.037 43.11 221.999 43.18L217.848 51.559C217.788 51.6803 217.704 51.7853 217.596 51.874C217.489 51.958 217.344 52 217.162 52H216.273L220.487 43.726C220.548 43.6093 220.609 43.502 220.669 43.404C220.735 43.306 220.807 43.2127 220.886 43.124H215.65C215.571 43.124 215.499 43.0937 215.433 43.033C215.373 42.9677 215.342 42.8953 215.342 42.816V41.969H222.16ZM223.309 51.23C223.309 51.1087 223.33 50.9943 223.372 50.887C223.419 50.7797 223.48 50.6863 223.554 50.607C223.634 50.5277 223.727 50.4647 223.834 50.418C223.942 50.3713 224.056 50.348 224.177 50.348C224.299 50.348 224.413 50.3713 224.52 50.418C224.628 50.4647 224.721 50.5277 224.8 50.607C224.88 50.6863 224.94 50.7797 224.982 50.887C225.029 50.9943 225.052 51.1087 225.052 51.23C225.052 51.356 225.029 51.4727 224.982 51.58C224.94 51.6827 224.88 51.7737 224.8 51.853C224.721 51.9323 224.628 51.993 224.52 52.035C224.413 52.0817 224.299 52.105 224.177 52.105C224.056 52.105 223.942 52.0817 223.834 52.035C223.727 51.993 223.634 51.9323 223.554 51.853C223.48 51.7737 223.419 51.6827 223.372 51.58C223.33 51.4727 223.309 51.356 223.309 51.23ZM232.506 42.515C232.506 42.6923 232.45 42.8393 232.338 42.956C232.226 43.068 232.037 43.124 231.771 43.124H228.621L228.159 45.756C228.682 45.644 229.165 45.588 229.608 45.588C230.131 45.588 230.59 45.665 230.987 45.819C231.388 45.973 231.724 46.1853 231.995 46.456C232.266 46.7267 232.469 47.0463 232.604 47.415C232.744 47.7837 232.814 48.185 232.814 48.619C232.814 49.151 232.721 49.6317 232.534 50.061C232.347 50.4903 232.091 50.859 231.764 51.167C231.442 51.4703 231.062 51.7037 230.623 51.867C230.184 52.0303 229.711 52.112 229.202 52.112C228.908 52.112 228.626 52.0817 228.355 52.021C228.084 51.965 227.832 51.888 227.599 51.79C227.366 51.692 227.149 51.58 226.948 51.454C226.747 51.328 226.57 51.195 226.416 51.055L226.794 50.523C226.878 50.4017 226.99 50.341 227.13 50.341C227.219 50.341 227.321 50.3783 227.438 50.453C227.559 50.523 227.704 50.6023 227.872 50.691C228.04 50.7797 228.236 50.8613 228.46 50.936C228.689 51.006 228.959 51.041 229.272 51.041C229.622 51.041 229.937 50.985 230.217 50.873C230.497 50.761 230.735 50.6023 230.931 50.397C231.132 50.187 231.286 49.9373 231.393 49.648C231.5 49.3587 231.554 49.0343 231.554 48.675C231.554 48.3623 231.507 48.08 231.414 47.828C231.325 47.576 231.188 47.3613 231.001 47.184C230.819 47.0067 230.59 46.869 230.315 46.771C230.04 46.673 229.718 46.624 229.349 46.624C229.097 46.624 228.836 46.645 228.565 46.687C228.294 46.729 228.014 46.7967 227.725 46.89L226.941 46.659L227.753 41.969H232.506V42.515ZM237.79 52V45.973L237.006 45.882C236.908 45.8587 236.827 45.8237 236.761 45.777C236.701 45.7257 236.67 45.6533 236.67 45.56V45.049H237.79V44.363C237.79 43.957 237.846 43.5977 237.958 43.285C238.075 42.9677 238.238 42.7017 238.448 42.487C238.663 42.2677 238.92 42.102 239.218 41.99C239.517 41.878 239.853 41.822 240.226 41.822C240.544 41.822 240.838 41.8687 241.108 41.962L241.08 42.585C241.076 42.6783 241.036 42.7343 240.961 42.753C240.887 42.7717 240.782 42.781 240.646 42.781H240.429C240.215 42.781 240.019 42.809 239.841 42.865C239.669 42.921 239.519 43.012 239.393 43.138C239.267 43.264 239.169 43.4297 239.099 43.635C239.034 43.8403 239.001 44.0947 239.001 44.398V45.049H241.052V45.952H239.043V52H237.79ZM244.376 52.112C243.816 52.112 243.384 51.9557 243.081 51.643C242.782 51.3303 242.633 50.88 242.633 50.292V45.952H241.779C241.704 45.952 241.641 45.931 241.59 45.889C241.539 45.8423 241.513 45.7723 241.513 45.679V45.182L242.675 45.035L242.962 42.844C242.971 42.774 243.002 42.718 243.053 42.676C243.104 42.6293 243.17 42.606 243.249 42.606H243.879V45.049H245.909V45.952H243.879V50.208C243.879 50.5067 243.951 50.7283 244.096 50.873C244.241 51.0177 244.427 51.09 244.656 51.09C244.787 51.09 244.899 51.0737 244.992 51.041C245.09 51.0037 245.174 50.964 245.244 50.922C245.314 50.88 245.372 50.8427 245.419 50.81C245.47 50.7727 245.515 50.754 245.552 50.754C245.617 50.754 245.676 50.7937 245.727 50.873L246.091 51.468C245.876 51.6687 245.617 51.8273 245.314 51.944C245.011 52.056 244.698 52.112 244.376 52.112Z" fill="white"/>
<path d="M42.2627 216.79C42.6873 216.79 43.084 216.853 43.4527 216.979C43.8213 217.105 44.1387 217.29 44.4047 217.532C44.6753 217.77 44.8877 218.062 45.0417 218.407C45.1957 218.753 45.2727 219.145 45.2727 219.583C45.2727 219.957 45.2167 220.302 45.1047 220.619C44.9927 220.937 44.841 221.242 44.6497 221.536C44.4583 221.826 44.2367 222.108 43.9847 222.383C43.7373 222.654 43.4737 222.932 43.1937 223.216L40.5547 225.918C40.7413 225.867 40.9303 225.827 41.1217 225.799C41.313 225.767 41.4973 225.75 41.6747 225.75H45.0347C45.17 225.75 45.2773 225.79 45.3567 225.869C45.436 225.949 45.4757 226.051 45.4757 226.177V226.933H38.7837V226.506C38.7837 226.418 38.8 226.327 38.8327 226.233C38.87 226.14 38.9283 226.054 39.0077 225.974L42.2207 222.747C42.4867 222.477 42.7293 222.218 42.9487 221.97C43.168 221.718 43.3547 221.466 43.5087 221.214C43.6673 220.962 43.7887 220.708 43.8727 220.451C43.9567 220.19 43.9987 219.912 43.9987 219.618C43.9987 219.324 43.952 219.068 43.8587 218.848C43.7653 218.624 43.637 218.44 43.4737 218.295C43.3103 218.151 43.119 218.043 42.8997 217.973C42.6803 217.899 42.4447 217.861 42.1927 217.861C41.9407 217.861 41.7073 217.899 41.4927 217.973C41.278 218.048 41.0867 218.153 40.9187 218.288C40.7553 218.419 40.6153 218.575 40.4987 218.757C40.3867 218.939 40.3073 219.14 40.2607 219.359C40.2233 219.495 40.1673 219.593 40.0927 219.653C40.018 219.714 39.92 219.744 39.7987 219.744C39.7753 219.744 39.7497 219.744 39.7217 219.744C39.6983 219.74 39.6703 219.735 39.6377 219.73L38.9867 219.618C39.052 219.161 39.178 218.757 39.3647 218.407C39.5513 218.053 39.787 217.756 40.0717 217.518C40.361 217.28 40.69 217.101 41.0587 216.979C41.432 216.853 41.8333 216.79 42.2627 216.79ZM53.8768 221.921C53.8768 222.799 53.7811 223.559 53.5898 224.203C53.4031 224.843 53.1464 225.372 52.8198 225.792C52.4931 226.212 52.1058 226.525 51.6578 226.73C51.2144 226.936 50.7384 227.038 50.2298 227.038C49.7164 227.038 49.2381 226.936 48.7948 226.73C48.3561 226.525 47.9734 226.212 47.6468 225.792C47.3201 225.372 47.0634 224.843 46.8768 224.203C46.6901 223.559 46.5968 222.799 46.5968 221.921C46.5968 221.044 46.6901 220.283 46.8768 219.639C47.0634 218.995 47.3201 218.463 47.6468 218.043C47.9734 217.619 48.3561 217.304 48.7948 217.098C49.2381 216.893 49.7164 216.79 50.2298 216.79C50.7384 216.79 51.2144 216.893 51.6578 217.098C52.1058 217.304 52.4931 217.619 52.8198 218.043C53.1464 218.463 53.4031 218.995 53.5898 219.639C53.7811 220.283 53.8768 221.044 53.8768 221.921ZM52.5818 221.921C52.5818 221.156 52.5164 220.514 52.3858 219.996C52.2598 219.474 52.0871 219.054 51.8678 218.736C51.6531 218.419 51.4034 218.193 51.1188 218.057C50.8341 217.917 50.5378 217.847 50.2298 217.847C49.9218 217.847 49.6254 217.917 49.3408 218.057C49.0561 218.193 48.8064 218.419 48.5918 218.736C48.3771 219.054 48.2044 219.474 48.0738 219.996C47.9478 220.514 47.8848 221.156 47.8848 221.921C47.8848 222.687 47.9478 223.328 48.0738 223.846C48.2044 224.364 48.3771 224.782 48.5918 225.099C48.8064 225.417 49.0561 225.645 49.3408 225.785C49.6254 225.921 49.9218 225.988 50.2298 225.988C50.5378 225.988 50.8341 225.921 51.1188 225.785C51.4034 225.645 51.6531 225.417 51.8678 225.099C52.0871 224.782 52.2598 224.364 52.3858 223.846C52.5164 223.328 52.5818 222.687 52.5818 221.921ZM58.3069 226.933V220.906L57.5229 220.815C57.4249 220.792 57.3432 220.757 57.2779 220.71C57.2172 220.659 57.1869 220.587 57.1869 220.493V219.982H58.3069V219.296C58.3069 218.89 58.3629 218.531 58.4749 218.218C58.5915 217.901 58.7549 217.635 58.9649 217.42C59.1795 217.201 59.4362 217.035 59.7349 216.923C60.0335 216.811 60.3695 216.755 60.7429 216.755C61.0602 216.755 61.3542 216.802 61.6249 216.895L61.5969 217.518C61.5922 217.612 61.5525 217.668 61.4779 217.686C61.4032 217.705 61.2982 217.714 61.1629 217.714H60.9459C60.7312 217.714 60.5352 217.742 60.3579 217.798C60.1852 217.854 60.0359 217.945 59.9099 218.071C59.7839 218.197 59.6859 218.363 59.6159 218.568C59.5505 218.774 59.5179 219.028 59.5179 219.331V219.982H61.5689V220.885H59.5599V226.933H58.3069ZM64.8927 227.045C64.3327 227.045 63.901 226.889 63.5977 226.576C63.299 226.264 63.1497 225.813 63.1497 225.225V220.885H62.2957C62.221 220.885 62.158 220.864 62.1067 220.822C62.0553 220.776 62.0297 220.706 62.0297 220.612V220.115L63.1917 219.968L63.4787 217.777C63.488 217.707 63.5183 217.651 63.5697 217.609C63.621 217.563 63.6863 217.539 63.7657 217.539H64.3957V219.982H66.4257V220.885H64.3957V225.141C64.3957 225.44 64.468 225.662 64.6127 225.806C64.7573 225.951 64.944 226.023 65.1727 226.023C65.3033 226.023 65.4153 226.007 65.5087 225.974C65.6067 225.937 65.6907 225.897 65.7607 225.855C65.8307 225.813 65.889 225.776 65.9357 225.743C65.987 225.706 66.0313 225.687 66.0687 225.687C66.134 225.687 66.1923 225.727 66.2437 225.806L66.6077 226.401C66.393 226.602 66.134 226.761 65.8307 226.877C65.5273 226.989 65.2147 227.045 64.8927 227.045Z" fill="white"/>
<path d="M347.418 51.048H349.574V44.209C349.574 44.0037 349.581 43.796 349.595 43.586L347.803 45.119C347.757 45.1563 347.71 45.1843 347.663 45.203C347.617 45.217 347.572 45.224 347.53 45.224C347.46 45.224 347.397 45.21 347.341 45.182C347.285 45.1493 347.243 45.112 347.215 45.07L346.823 44.531L349.805 41.948H350.82V51.048H352.794V52H347.418V51.048ZM360.376 42.515C360.376 42.6923 360.32 42.8393 360.208 42.956C360.096 43.068 359.907 43.124 359.641 43.124H356.491L356.029 45.756C356.552 45.644 357.035 45.588 357.478 45.588C358.001 45.588 358.461 45.665 358.857 45.819C359.259 45.973 359.595 46.1853 359.865 46.456C360.136 46.7267 360.339 47.0463 360.474 47.415C360.614 47.7837 360.684 48.185 360.684 48.619C360.684 49.151 360.591 49.6317 360.404 50.061C360.218 50.4903 359.961 50.859 359.634 51.167C359.312 51.4703 358.932 51.7037 358.493 51.867C358.055 52.0303 357.581 52.112 357.072 52.112C356.778 52.112 356.496 52.0817 356.225 52.021C355.955 51.965 355.703 51.888 355.469 51.79C355.236 51.692 355.019 51.58 354.818 51.454C354.618 51.328 354.44 51.195 354.286 51.055L354.664 50.523C354.748 50.4017 354.86 50.341 355 50.341C355.089 50.341 355.192 50.3783 355.308 50.453C355.43 50.523 355.574 50.6023 355.742 50.691C355.91 50.7797 356.106 50.8613 356.33 50.936C356.559 51.006 356.83 51.041 357.142 51.041C357.492 51.041 357.807 50.985 358.087 50.873C358.367 50.761 358.605 50.6023 358.801 50.397C359.002 50.187 359.156 49.9373 359.263 49.648C359.371 49.3587 359.424 49.0343 359.424 48.675C359.424 48.3623 359.378 48.08 359.284 47.828C359.196 47.576 359.058 47.3613 358.871 47.184C358.689 47.0067 358.461 46.869 358.185 46.771C357.91 46.673 357.588 46.624 357.219 46.624C356.967 46.624 356.706 46.645 356.435 46.687C356.165 46.729 355.885 46.7967 355.595 46.89L354.811 46.659L355.623 41.969H360.376V42.515ZM362.953 52V45.973L362.169 45.882C362.071 45.8587 361.99 45.8237 361.924 45.777C361.864 45.7257 361.833 45.6533 361.833 45.56V45.049H362.953V44.363C362.953 43.957 363.009 43.5977 363.121 43.285C363.238 42.9677 363.401 42.7017 363.611 42.487C363.826 42.2677 364.083 42.102 364.381 41.99C364.68 41.878 365.016 41.822 365.389 41.822C365.707 41.822 366.001 41.8687 366.271 41.962L366.243 42.585C366.239 42.6783 366.199 42.7343 366.124 42.753C366.05 42.7717 365.945 42.781 365.809 42.781H365.592C365.378 42.781 365.182 42.809 365.004 42.865C364.832 42.921 364.682 43.012 364.556 43.138C364.43 43.264 364.332 43.4297 364.262 43.635C364.197 43.8403 364.164 44.0947 364.164 44.398V45.049H366.215V45.952H364.206V52H362.953ZM369.539 52.112C368.979 52.112 368.547 51.9557 368.244 51.643C367.945 51.3303 367.796 50.88 367.796 50.292V45.952H366.942C366.867 45.952 366.804 45.931 366.753 45.889C366.702 45.8423 366.676 45.7723 366.676 45.679V45.182L367.838 45.035L368.125 42.844C368.134 42.774 368.165 42.718 368.216 42.676C368.267 42.6293 368.333 42.606 368.412 42.606H369.042V45.049H371.072V45.952H369.042V50.208C369.042 50.5067 369.114 50.7283 369.259 50.873C369.404 51.0177 369.59 51.09 369.819 51.09C369.95 51.09 370.062 51.0737 370.155 51.041C370.253 51.0037 370.337 50.964 370.407 50.922C370.477 50.88 370.535 50.8427 370.582 50.81C370.633 50.7727 370.678 50.754 370.715 50.754C370.78 50.754 370.839 50.7937 370.89 50.873L371.254 51.468C371.039 51.6687 370.78 51.8273 370.477 51.944C370.174 52.056 369.861 52.112 369.539 52.112Z" fill="white"/>
<rect x="272.25" y="108.25" width="166.5" height="17.5" fill="#E4E4E4" fill-opacity="0.85" stroke="#4E4E4E" stroke-width="0.5"/>
<line x1="281.25" y1="108" x2="281.25" y2="126" stroke="#4E4E4E" stroke-width="0.5"/>
<line x1="291.25" y1="108" x2="291.25" y2="126" stroke="#4E4E4E" stroke-width="0.5"/>
<line x1="300.25" y1="108" x2="300.25" y2="126" stroke="#4E4E4E" stroke-width="0.5"/>
<line x1="310.25" y1="108" x2="310.25" y2="126" stroke="#4E4E4E" stroke-width="0.5"/>
<line x1="320.25" y1="108" x2="320.25" y2="126" stroke="#4E4E4E" stroke-width="0.5"/>
<line x1="330.25" y1="108" x2="330.25" y2="126" stroke="#4E4E4E" stroke-width="0.5"/>
<line x1="340.25" y1="108" x2="340.25" y2="126" stroke="#4E4E4E" stroke-width="0.5"/>
<line x1="350.25" y1="108" x2="350.25" y2="126" stroke="#4E4E4E" stroke-width="0.5"/>
<line x1="360.25" y1="108" x2="360.25" y2="126" stroke="#4E4E4E" stroke-width="0.5"/>
<line x1="370.25" y1="108" x2="370.25" y2="126" stroke="#4E4E4E" stroke-width="0.5"/>
<line x1="380.25" y1="108" x2="380.25" y2="126" stroke="#4E4E4E" stroke-width="0.5"/>
<line x1="390.25" y1="108" x2="390.25" y2="126" stroke="#4E4E4E" stroke-width="0.5"/>
<line x1="400.25" y1="108" x2="400.25" y2="126" stroke="#4E4E4E" stroke-width="0.5"/>
<line x1="410.25" y1="108" x2="410.25" y2="126" stroke="#4E4E4E" stroke-width="0.5"/>
<line x1="419.25" y1="108" x2="419.25" y2="126" stroke="#4E4E4E" stroke-width="0.5"/>
<line x1="429.25" y1="108" x2="429.25" y2="126" stroke="#4E4E4E" stroke-width="0.5"/>
<path d="M337.402 99.048H339.558V92.209C339.558 92.0037 339.565 91.796 339.579 91.586L337.787 93.119C337.74 93.1563 337.693 93.1843 337.647 93.203C337.6 93.217 337.556 93.224 337.514 93.224C337.444 93.224 337.381 93.21 337.325 93.182C337.269 93.1493 337.227 93.112 337.199 93.07L336.807 92.531L339.789 89.948H340.804V99.048H342.778V100H337.402V99.048ZM344.13 99.23C344.13 99.1087 344.151 98.9943 344.193 98.887C344.239 98.7797 344.3 98.6863 344.375 98.607C344.454 98.5277 344.547 98.4647 344.655 98.418C344.762 98.3713 344.876 98.348 344.998 98.348C345.119 98.348 345.233 98.3713 345.341 98.418C345.448 98.4647 345.541 98.5277 345.621 98.607C345.7 98.6863 345.761 98.7797 345.803 98.887C345.849 98.9943 345.873 99.1087 345.873 99.23C345.873 99.356 345.849 99.4727 345.803 99.58C345.761 99.6827 345.7 99.7737 345.621 99.853C345.541 99.9323 345.448 99.993 345.341 100.035C345.233 100.082 345.119 100.105 344.998 100.105C344.876 100.105 344.762 100.082 344.655 100.035C344.547 99.993 344.454 99.9323 344.375 99.853C344.3 99.7737 344.239 99.6827 344.193 99.58C344.151 99.4727 344.13 99.356 344.13 99.23ZM350.687 89.857C351.112 89.857 351.509 89.92 351.877 90.046C352.246 90.172 352.563 90.3563 352.829 90.599C353.1 90.837 353.312 91.1287 353.466 91.474C353.62 91.8193 353.697 92.2113 353.697 92.65C353.697 93.0233 353.641 93.3687 353.529 93.686C353.417 94.0033 353.266 94.309 353.074 94.603C352.883 94.8923 352.661 95.1747 352.409 95.45C352.162 95.7207 351.898 95.9983 351.618 96.283L348.979 98.985C349.166 98.9337 349.355 98.894 349.546 98.866C349.738 98.8333 349.922 98.817 350.099 98.817H353.459C353.595 98.817 353.702 98.8567 353.781 98.936C353.861 99.0153 353.9 99.118 353.9 99.244V100H347.208V99.573C347.208 99.4843 347.225 99.3933 347.257 99.3C347.295 99.2067 347.353 99.1203 347.432 99.041L350.645 95.814C350.911 95.5433 351.154 95.2843 351.373 95.037C351.593 94.785 351.779 94.533 351.933 94.281C352.092 94.029 352.213 93.7747 352.297 93.518C352.381 93.2567 352.423 92.979 352.423 92.685C352.423 92.391 352.377 92.1343 352.283 91.915C352.19 91.691 352.062 91.5067 351.898 91.362C351.735 91.2173 351.544 91.11 351.324 91.04C351.105 90.9653 350.869 90.928 350.617 90.928C350.365 90.928 350.132 90.9653 349.917 91.04C349.703 91.1147 349.511 91.2197 349.343 91.355C349.18 91.4857 349.04 91.642 348.923 91.824C348.811 92.006 348.732 92.2067 348.685 92.426C348.648 92.5613 348.592 92.6593 348.517 92.72C348.443 92.7807 348.345 92.811 348.223 92.811C348.2 92.811 348.174 92.811 348.146 92.811C348.123 92.8063 348.095 92.8017 348.062 92.797L347.411 92.685C347.477 92.2277 347.603 91.824 347.789 91.474C347.976 91.1193 348.212 90.823 348.496 90.585C348.786 90.347 349.115 90.1673 349.483 90.046C349.857 89.92 350.258 89.857 350.687 89.857ZM359.626 89.689V95.758H359.948C360.041 95.758 360.118 95.7463 360.179 95.723C360.239 95.695 360.307 95.6413 360.382 95.562L362.622 93.161C362.692 93.0863 362.762 93.0257 362.832 92.979C362.902 92.9323 362.995 92.909 363.112 92.909H364.246L361.635 95.688C361.569 95.7673 361.504 95.8373 361.439 95.898C361.378 95.9587 361.308 96.0123 361.229 96.059C361.313 96.115 361.387 96.1803 361.453 96.255C361.523 96.325 361.588 96.4067 361.649 96.5L364.421 100H363.301C363.198 100 363.109 99.9813 363.035 99.944C362.965 99.902 362.897 99.839 362.832 99.755L360.501 96.85C360.431 96.752 360.361 96.689 360.291 96.661C360.221 96.6283 360.116 96.612 359.976 96.612H359.626V100H358.373V89.689H359.626ZM365.777 100.147C365.712 100.31 365.614 100.432 365.483 100.511C365.357 100.59 365.227 100.63 365.091 100.63H364.566L368.773 90.151C368.834 90.0017 368.92 89.8873 369.032 89.808C369.144 89.7287 369.277 89.689 369.431 89.689H369.956L365.777 100.147ZM370.97 100V93.973L370.186 93.882C370.088 93.8587 370.006 93.8237 369.941 93.777C369.88 93.7257 369.85 93.6533 369.85 93.56V93.049H370.97V92.363C370.97 91.957 371.026 91.5977 371.138 91.285C371.255 90.9677 371.418 90.7017 371.628 90.487C371.843 90.2677 372.099 90.102 372.398 89.99C372.697 89.878 373.033 89.822 373.406 89.822C373.723 89.822 374.017 89.8687 374.288 89.962L374.26 90.585C374.255 90.6783 374.216 90.7343 374.141 90.753C374.066 90.7717 373.961 90.781 373.826 90.781H373.609C373.394 90.781 373.198 90.809 373.021 90.865C372.848 90.921 372.699 91.012 372.573 91.138C372.447 91.264 372.349 91.4297 372.279 91.635C372.214 91.8403 372.181 92.0947 372.181 92.398V93.049H374.232V93.952H372.223V100H370.97ZM377.556 100.112C376.996 100.112 376.564 99.9557 376.261 99.643C375.962 99.3303 375.813 98.88 375.813 98.292V93.952H374.959C374.884 93.952 374.821 93.931 374.77 93.889C374.718 93.8423 374.693 93.7723 374.693 93.679V93.182L375.855 93.035L376.142 90.844C376.151 90.774 376.181 90.718 376.233 90.676C376.284 90.6293 376.349 90.606 376.429 90.606H377.059V93.049H379.089V93.952H377.059V98.208C377.059 98.5067 377.131 98.7283 377.276 98.873C377.42 99.0177 377.607 99.09 377.836 99.09C377.966 99.09 378.078 99.0737 378.172 99.041C378.27 99.0037 378.354 98.964 378.424 98.922C378.494 98.88 378.552 98.8427 378.599 98.81C378.65 98.7727 378.694 98.754 378.732 98.754C378.797 98.754 378.855 98.7937 378.907 98.873L379.271 99.468C379.056 99.6687 378.797 99.8273 378.494 99.944C378.19 100.056 377.878 100.112 377.556 100.112Z" fill="white"/>
<path d="M184.675 88.381H186.194V89.095C186.194 89.1697 186.171 89.2327 186.124 89.284C186.082 89.3353 186.015 89.361 185.921 89.361H184.675V92H183.576V89.361H179.131C179.038 89.361 178.956 89.3353 178.886 89.284C178.821 89.228 178.779 89.1603 178.76 89.081L178.634 88.444L183.513 81.969H184.675V88.381ZM183.576 84.244C183.576 84.1227 183.579 83.992 183.583 83.852C183.593 83.712 183.609 83.5673 183.632 83.418L179.985 88.381H183.576V84.244ZM194.176 86.988C194.176 87.8653 194.08 88.626 193.889 89.27C193.702 89.9093 193.445 90.439 193.119 90.859C192.792 91.279 192.405 91.5917 191.957 91.797C191.513 92.0023 191.037 92.105 190.529 92.105C190.015 92.105 189.537 92.0023 189.094 91.797C188.655 91.5917 188.272 91.279 187.946 90.859C187.619 90.439 187.362 89.9093 187.176 89.27C186.989 88.626 186.896 87.8653 186.896 86.988C186.896 86.1107 186.989 85.35 187.176 84.706C187.362 84.062 187.619 83.53 187.946 83.11C188.272 82.6853 188.655 82.3703 189.094 82.165C189.537 81.9597 190.015 81.857 190.529 81.857C191.037 81.857 191.513 81.9597 191.957 82.165C192.405 82.3703 192.792 82.6853 193.119 83.11C193.445 83.53 193.702 84.062 193.889 84.706C194.08 85.35 194.176 86.1107 194.176 86.988ZM192.881 86.988C192.881 86.2227 192.815 85.581 192.685 85.063C192.559 84.5403 192.386 84.1203 192.167 83.803C191.952 83.4857 191.702 83.2593 191.418 83.124C191.133 82.984 190.837 82.914 190.529 82.914C190.221 82.914 189.924 82.984 189.64 83.124C189.355 83.2593 189.105 83.4857 188.891 83.803C188.676 84.1203 188.503 84.5403 188.373 85.063C188.247 85.581 188.184 86.2227 188.184 86.988C188.184 87.7533 188.247 88.395 188.373 88.913C188.503 89.431 188.676 89.8487 188.891 90.166C189.105 90.4833 189.355 90.712 189.64 90.852C189.924 90.9873 190.221 91.055 190.529 91.055C190.837 91.055 191.133 90.9873 191.418 90.852C191.702 90.712 191.952 90.4833 192.167 90.166C192.386 89.8487 192.559 89.431 192.685 88.913C192.815 88.395 192.881 87.7533 192.881 86.988ZM199.621 81.689V87.758H199.943C200.036 87.758 200.113 87.7463 200.174 87.723C200.234 87.695 200.302 87.6413 200.377 87.562L202.617 85.161C202.687 85.0863 202.757 85.0257 202.827 84.979C202.897 84.9323 202.99 84.909 203.107 84.909H204.241L201.63 87.688C201.564 87.7673 201.499 87.8373 201.434 87.898C201.373 87.9587 201.303 88.0123 201.224 88.059C201.308 88.115 201.382 88.1803 201.448 88.255C201.518 88.325 201.583 88.4067 201.644 88.5L204.416 92H203.296C203.193 92 203.104 91.9813 203.03 91.944C202.96 91.902 202.892 91.839 202.827 91.755L200.496 88.85C200.426 88.752 200.356 88.689 200.286 88.661C200.216 88.6283 200.111 88.612 199.971 88.612H199.621V92H198.368V81.689H199.621Z" fill="white"/>
<path d="M188.646 124.354C188.842 124.549 189.158 124.549 189.354 124.354L192.536 121.172C192.731 120.976 192.731 120.66 192.536 120.464C192.34 120.269 192.024 120.269 191.828 120.464L189 123.293L186.172 120.464C185.976 120.269 185.66 120.269 185.464 120.464C185.269 120.66 185.269 120.976 185.464 121.172L188.646 124.354ZM188.5 97L188.5 124L189.5 124L189.5 97L188.5 97Z" fill="#B8B8B8"/>
<defs>
<linearGradient id="paint0_linear" x1="25" y1="0" x2="25" y2="7" gradientUnits="userSpaceOnUse">
<stop stop-color="#C4C4C4" stop-opacity="0"/>
<stop offset="0.53125" stop-color="#CFD4B5" stop-opacity="0.385417"/>
<stop offset="0.880208" stop-color="#FAECA2" stop-opacity="0.74"/>
</linearGradient>
<linearGradient id="paint1_linear" x1="25" y1="0" x2="25" y2="7" gradientUnits="userSpaceOnUse">
<stop stop-color="#C4C4C4" stop-opacity="0"/>
<stop offset="0.53125" stop-color="#CFD4B5" stop-opacity="0.385417"/>
<stop offset="0.880208" stop-color="#FAECA2" stop-opacity="0.74"/>
</linearGradient>
<linearGradient id="paint2_linear" x1="25" y1="0" x2="25" y2="7" gradientUnits="userSpaceOnUse">
<stop stop-color="#C4C4C4" stop-opacity="0"/>
<stop offset="0.53125" stop-color="#CFD4B5" stop-opacity="0.385417"/>
<stop offset="0.880208" stop-color="#FAECA2" stop-opacity="0.74"/>
</linearGradient>
</defs>
</svg>
