<svg width="560" height="381" viewBox="0 0 560 381" fill="none" xmlns="http://www.w3.org/2000/svg">
<rect width="560" height="381" />
<line x1="163.75" y1="205.75" x2="323.25" y2="205.75" stroke="white" stroke-width="0.5" stroke-linecap="round"/>
<circle cx="327" cy="205.5" r="3.5" fill="#CADEFC" stroke="black" stroke-width="0.5"/>
<line x1="330.5" y1="205.75" x2="490.5" y2="205.75" stroke="white" stroke-width="0.5"/>
<circle cx="327" cy="78.5" r="3.5" fill="#CADEFC" stroke="black" stroke-width="0.5"/>
<line x1="330.75" y1="78.75" x2="490.25" y2="78.75" stroke="white" stroke-width="0.5" stroke-linecap="round"/>
<circle cx="494" cy="78.5" r="3.5" fill="#CADEFC" stroke="black" stroke-width="0.5"/>
<line x1="326.5" y1="275.5" x2="326.5" y2="348.5" stroke="#A2A2A2" stroke-linecap="round"/>
<path d="M494 241L494 349" stroke="#A2A2A2" stroke-linecap="round"/>
<path d="M160 241L160 349" stroke="#A2A2A2" stroke-linecap="round"/>
<line x1="145.5" y1="206" x2="25.5" y2="206" stroke="#A2A2A2" stroke-linecap="round"/>
<line x1="145.5" y1="79" x2="25.5" y2="79" stroke="#A2A2A2" stroke-linecap="round"/>
<line x1="327.25" y1="202" x2="327.25" y2="82" stroke="white" stroke-width="0.5"/>
<line x1="494.25" y1="202" x2="494.25" y2="82" stroke="white" stroke-width="0.5"/>
<line x1="329.35" y1="202.8" x2="491.469" y2="80.9591" stroke="white" stroke-width="0.5"/>
<line x1="162.35" y1="202.8" x2="324.469" y2="80.9591" stroke="white" stroke-width="0.5"/>
<line x1="491.35" y1="203.2" x2="329.35" y2="81.1997" stroke="white" stroke-width="0.5"/>
<path d="M328.323 329.823C328.226 329.921 328.226 330.079 328.323 330.177L329.914 331.768C330.012 331.865 330.17 331.865 330.268 331.768C330.365 331.67 330.365 331.512 330.268 331.414L328.854 330L330.268 328.586C330.365 328.488 330.365 328.33 330.268 328.232C330.17 328.135 330.012 328.135 329.914 328.232L328.323 329.823ZM492.677 330.177C492.774 330.079 492.774 329.921 492.677 329.823L491.086 328.232C490.988 328.135 490.83 328.135 490.732 328.232C490.635 328.33 490.635 328.488 490.732 328.586L492.146 330L490.732 331.414C490.635 331.512 490.635 331.67 490.732 331.768C490.83 331.865 490.988 331.865 491.086 331.768L492.677 330.177ZM328.5 330.25L492.5 330.25L492.5 329.75L328.5 329.75L328.5 330.25Z" fill="#B8B8B8"/>
<path d="M161.323 329.823C161.226 329.921 161.226 330.079 161.323 330.177L162.914 331.768C163.012 331.865 163.17 331.865 163.268 331.768C163.365 331.67 163.365 331.512 163.268 331.414L161.854 330L163.268 328.586C163.365 328.488 163.365 328.33 163.268 328.232C163.17 328.135 163.012 328.135 162.914 328.232L161.323 329.823ZM324.677 330.177C324.774 330.079 324.774 329.921 324.677 329.823L323.086 328.232C322.988 328.135 322.83 328.135 322.732 328.232C322.635 328.33 322.635 328.488 322.732 328.586L324.146 330L322.732 331.414C322.635 331.512 322.635 331.67 322.732 331.768C322.83 331.865 322.988 331.865 323.086 331.768L324.677 330.177ZM161.5 330.25L324.5 330.25L324.5 329.75L161.5 329.75L161.5 330.25Z" fill="#B8B8B8"/>
<path d="M42.3232 205.177C42.4209 205.274 42.5791 205.274 42.6768 205.177L44.2678 203.586C44.3654 203.488 44.3654 203.33 44.2678 203.232C44.1701 203.135 44.0118 203.135 43.9142 203.232L42.5 204.646L41.0858 203.232C40.9882 203.135 40.8299 203.135 40.7322 203.232C40.6346 203.33 40.6346 203.488 40.7322 203.586L42.3232 205.177ZM42.6768 79.8232C42.5792 79.7256 42.4209 79.7256 42.3232 79.8232L40.7322 81.4142C40.6346 81.5118 40.6346 81.6701 40.7322 81.7678C40.8299 81.8654 40.9882 81.8654 41.0858 81.7678L42.5 80.3536L43.9142 81.7678C44.0119 81.8654 44.1701 81.8654 44.2678 81.7678C44.3654 81.6701 44.3654 81.5118 44.2678 81.4142L42.6768 79.8232ZM42.75 205L42.75 80L42.25 80L42.25 205L42.75 205Z" fill="#B8B8B8"/>
<path d="M227.788 345.912H230.252V338.096C230.252 337.861 230.26 337.624 230.276 337.384L228.228 339.136C228.175 339.179 228.122 339.211 228.068 339.232C228.015 339.248 227.964 339.256 227.916 339.256C227.836 339.256 227.764 339.24 227.7 339.208C227.636 339.171 227.588 339.128 227.556 339.08L227.108 338.464L230.516 335.512H231.676V345.912H233.932V347H227.788V345.912ZM239.973 339.976C240.432 339.976 240.867 340.053 241.277 340.208C241.688 340.357 242.048 340.579 242.357 340.872C242.667 341.16 242.912 341.517 243.093 341.944C243.275 342.365 243.365 342.848 243.365 343.392C243.365 343.92 243.269 344.411 243.077 344.864C242.885 345.317 242.616 345.712 242.269 346.048C241.928 346.384 241.515 346.648 241.029 346.84C240.544 347.032 240.011 347.128 239.429 347.128C238.853 347.128 238.331 347.037 237.861 346.856C237.397 346.669 237 346.408 236.669 346.072C236.339 345.731 236.083 345.32 235.901 344.84C235.725 344.355 235.637 343.813 235.637 343.216C235.637 342.715 235.749 342.181 235.973 341.616C236.197 341.051 236.552 340.443 237.037 339.792L239.941 335.88C240.016 335.784 240.12 335.704 240.253 335.64C240.387 335.571 240.539 335.536 240.709 335.536H241.973L237.997 340.568C238.269 340.381 238.571 340.237 238.901 340.136C239.232 340.029 239.589 339.976 239.973 339.976ZM237.013 343.464C237.013 343.832 237.067 344.168 237.173 344.472C237.28 344.776 237.435 345.037 237.637 345.256C237.845 345.475 238.096 345.645 238.389 345.768C238.688 345.885 239.027 345.944 239.405 345.944C239.789 345.944 240.136 345.883 240.445 345.76C240.755 345.637 241.019 345.467 241.237 345.248C241.461 345.029 241.632 344.771 241.749 344.472C241.872 344.173 241.933 343.848 241.933 343.496C241.933 343.123 241.875 342.787 241.757 342.488C241.64 342.184 241.475 341.928 241.261 341.72C241.048 341.507 240.792 341.344 240.493 341.232C240.195 341.12 239.867 341.064 239.509 341.064C239.125 341.064 238.779 341.131 238.469 341.264C238.16 341.392 237.896 341.568 237.677 341.792C237.464 342.011 237.299 342.267 237.181 342.56C237.069 342.848 237.013 343.149 237.013 343.464ZM248.636 347V340.112L247.74 340.008C247.628 339.981 247.535 339.941 247.46 339.888C247.391 339.829 247.356 339.747 247.356 339.64V339.056H248.636V338.272C248.636 337.808 248.7 337.397 248.828 337.04C248.962 336.677 249.148 336.373 249.388 336.128C249.634 335.877 249.927 335.688 250.268 335.56C250.61 335.432 250.994 335.368 251.42 335.368C251.783 335.368 252.119 335.421 252.428 335.528L252.396 336.24C252.391 336.347 252.346 336.411 252.26 336.432C252.175 336.453 252.055 336.464 251.9 336.464H251.652C251.407 336.464 251.183 336.496 250.98 336.56C250.783 336.624 250.612 336.728 250.468 336.872C250.324 337.016 250.212 337.205 250.132 337.44C250.058 337.675 250.02 337.965 250.02 338.312V339.056H252.364V340.088H250.068V347H248.636ZM256.163 347.128C255.523 347.128 255.03 346.949 254.683 346.592C254.342 346.235 254.171 345.72 254.171 345.048V340.088H253.195C253.11 340.088 253.038 340.064 252.979 340.016C252.92 339.963 252.891 339.883 252.891 339.776V339.208L254.219 339.04L254.547 336.536C254.558 336.456 254.592 336.392 254.651 336.344C254.71 336.291 254.784 336.264 254.875 336.264H255.595V339.056H257.915V340.088H255.595V344.952C255.595 345.293 255.678 345.547 255.843 345.712C256.008 345.877 256.222 345.96 256.483 345.96C256.632 345.96 256.76 345.941 256.867 345.904C256.979 345.861 257.075 345.816 257.155 345.768C257.235 345.72 257.302 345.677 257.355 345.64C257.414 345.597 257.464 345.576 257.507 345.576C257.582 345.576 257.648 345.621 257.707 345.712L258.123 346.392C257.878 346.621 257.582 346.803 257.235 346.936C256.888 347.064 256.531 347.128 256.163 347.128Z" fill="white"/>
<path d="M34.912 156.212V153.748H27.096C26.8613 153.748 26.624 153.74 26.384 153.724L28.136 155.772C28.1787 155.825 28.2107 155.878 28.232 155.932C28.248 155.985 28.256 156.036 28.256 156.084C28.256 156.164 28.24 156.236 28.208 156.3C28.1707 156.364 28.128 156.412 28.08 156.444L27.464 156.892L24.512 153.484V152.324H34.912V150.068H36V156.212H34.912ZM24.408 144.419C24.408 143.933 24.48 143.48 24.624 143.059C24.768 142.637 24.9787 142.275 25.256 141.971C25.528 141.661 25.8613 141.419 26.256 141.243C26.6507 141.067 27.0987 140.979 27.6 140.979C28.0267 140.979 28.4213 141.043 28.784 141.171C29.1467 141.299 29.496 141.472 29.832 141.691C30.1627 141.909 30.4853 142.163 30.8 142.451C31.1093 142.733 31.4267 143.035 31.752 143.355L34.84 146.371C34.7813 146.157 34.736 145.941 34.704 145.723C34.6667 145.504 34.648 145.293 34.648 145.091V141.251C34.648 141.096 34.6933 140.973 34.784 140.883C34.8747 140.792 34.992 140.747 35.136 140.747H36V148.395H35.512C35.4107 148.395 35.3067 148.376 35.2 148.339C35.0933 148.296 34.9947 148.229 34.904 148.139L31.216 144.467C30.9067 144.163 30.6107 143.885 30.328 143.635C30.04 143.384 29.752 143.171 29.464 142.995C29.176 142.813 28.8853 142.675 28.592 142.579C28.2933 142.483 27.976 142.435 27.64 142.435C27.304 142.435 27.0107 142.488 26.76 142.595C26.504 142.701 26.2933 142.848 26.128 143.035C25.9627 143.221 25.84 143.44 25.76 143.691C25.6747 143.941 25.632 144.211 25.632 144.499C25.632 144.787 25.6747 145.053 25.76 145.299C25.8453 145.544 25.9653 145.763 26.12 145.955C26.2693 146.141 26.448 146.301 26.656 146.435C26.864 146.563 27.0933 146.653 27.344 146.707C27.4987 146.749 27.6107 146.813 27.68 146.899C27.7493 146.984 27.784 147.096 27.784 147.235C27.784 147.261 27.784 147.291 27.784 147.323C27.7787 147.349 27.7733 147.381 27.768 147.419L27.64 148.163C27.1173 148.088 26.656 147.944 26.256 147.731C25.8507 147.517 25.512 147.248 25.24 146.923C24.968 146.592 24.7627 146.216 24.624 145.795C24.48 145.368 24.408 144.909 24.408 144.419ZM36 135.364H29.112L29.008 136.26C28.9813 136.372 28.9413 136.465 28.888 136.54C28.8293 136.609 28.7467 136.644 28.64 136.644H28.056V135.364H27.272C26.808 135.364 26.3973 135.3 26.04 135.172C25.6773 135.038 25.3733 134.852 25.128 134.612C24.8773 134.366 24.688 134.073 24.56 133.732C24.432 133.39 24.368 133.006 24.368 132.58C24.368 132.217 24.4213 131.881 24.528 131.572L25.24 131.604C25.3467 131.609 25.4107 131.654 25.432 131.74C25.4533 131.825 25.464 131.945 25.464 132.1V132.348C25.464 132.593 25.496 132.817 25.56 133.02C25.624 133.217 25.728 133.388 25.872 133.532C26.016 133.676 26.2053 133.788 26.44 133.868C26.6747 133.942 26.9653 133.98 27.312 133.98H28.056V131.636H29.088V133.932H36V135.364ZM36.128 127.837C36.128 128.477 35.9493 128.97 35.592 129.317C35.2347 129.658 34.72 129.829 34.048 129.829H29.088V130.805C29.088 130.89 29.064 130.962 29.016 131.021C28.9627 131.08 28.8827 131.109 28.776 131.109H28.208L28.04 129.781L25.536 129.453C25.456 129.442 25.392 129.408 25.344 129.349C25.2907 129.29 25.264 129.216 25.264 129.125V128.405H28.056L28.056 126.085H29.088L29.088 128.405H33.952C34.2933 128.405 34.5467 128.322 34.712 128.157C34.8773 127.992 34.96 127.778 34.96 127.517C34.96 127.368 34.9413 127.24 34.904 127.133C34.8613 127.021 34.816 126.925 34.768 126.845C34.72 126.765 34.6773 126.698 34.64 126.645C34.5973 126.586 34.576 126.536 34.576 126.493C34.576 126.418 34.6213 126.352 34.712 126.293L35.392 125.877C35.6213 126.122 35.8027 126.418 35.936 126.765C36.064 127.112 36.128 127.469 36.128 127.837Z" fill="white"/>
<path d="M396.788 345.912H399.252V338.096C399.252 337.861 399.26 337.624 399.276 337.384L397.228 339.136C397.175 339.179 397.122 339.211 397.068 339.232C397.015 339.248 396.964 339.256 396.916 339.256C396.836 339.256 396.764 339.24 396.7 339.208C396.636 339.171 396.588 339.128 396.556 339.08L396.108 338.464L399.516 335.512H400.676V345.912H402.932V347H396.788V345.912ZM408.973 339.976C409.432 339.976 409.867 340.053 410.277 340.208C410.688 340.357 411.048 340.579 411.357 340.872C411.667 341.16 411.912 341.517 412.093 341.944C412.275 342.365 412.365 342.848 412.365 343.392C412.365 343.92 412.269 344.411 412.077 344.864C411.885 345.317 411.616 345.712 411.269 346.048C410.928 346.384 410.515 346.648 410.029 346.84C409.544 347.032 409.011 347.128 408.429 347.128C407.853 347.128 407.331 347.037 406.861 346.856C406.397 346.669 406 346.408 405.669 346.072C405.339 345.731 405.083 345.32 404.901 344.84C404.725 344.355 404.637 343.813 404.637 343.216C404.637 342.715 404.749 342.181 404.973 341.616C405.197 341.051 405.552 340.443 406.037 339.792L408.941 335.88C409.016 335.784 409.12 335.704 409.253 335.64C409.387 335.571 409.539 335.536 409.709 335.536H410.973L406.997 340.568C407.269 340.381 407.571 340.237 407.901 340.136C408.232 340.029 408.589 339.976 408.973 339.976ZM406.013 343.464C406.013 343.832 406.067 344.168 406.173 344.472C406.28 344.776 406.435 345.037 406.637 345.256C406.845 345.475 407.096 345.645 407.389 345.768C407.688 345.885 408.027 345.944 408.405 345.944C408.789 345.944 409.136 345.883 409.445 345.76C409.755 345.637 410.019 345.467 410.237 345.248C410.461 345.029 410.632 344.771 410.749 344.472C410.872 344.173 410.933 343.848 410.933 343.496C410.933 343.123 410.875 342.787 410.757 342.488C410.64 342.184 410.475 341.928 410.261 341.72C410.048 341.507 409.792 341.344 409.493 341.232C409.195 341.12 408.867 341.064 408.509 341.064C408.125 341.064 407.779 341.131 407.469 341.264C407.16 341.392 406.896 341.568 406.677 341.792C406.464 342.011 406.299 342.267 406.181 342.56C406.069 342.848 406.013 343.149 406.013 343.464ZM417.636 347V340.112L416.74 340.008C416.628 339.981 416.535 339.941 416.46 339.888C416.391 339.829 416.356 339.747 416.356 339.64V339.056H417.636V338.272C417.636 337.808 417.7 337.397 417.828 337.04C417.962 336.677 418.148 336.373 418.388 336.128C418.634 335.877 418.927 335.688 419.268 335.56C419.61 335.432 419.994 335.368 420.42 335.368C420.783 335.368 421.119 335.421 421.428 335.528L421.396 336.24C421.391 336.347 421.346 336.411 421.26 336.432C421.175 336.453 421.055 336.464 420.9 336.464H420.652C420.407 336.464 420.183 336.496 419.98 336.56C419.783 336.624 419.612 336.728 419.468 336.872C419.324 337.016 419.212 337.205 419.132 337.44C419.058 337.675 419.02 337.965 419.02 338.312V339.056H421.364V340.088H419.068V347H417.636ZM425.163 347.128C424.523 347.128 424.03 346.949 423.683 346.592C423.342 346.235 423.171 345.72 423.171 345.048V340.088H422.195C422.11 340.088 422.038 340.064 421.979 340.016C421.92 339.963 421.891 339.883 421.891 339.776V339.208L423.219 339.04L423.547 336.536C423.558 336.456 423.592 336.392 423.651 336.344C423.71 336.291 423.784 336.264 423.875 336.264H424.595V339.056H426.915V340.088H424.595V344.952C424.595 345.293 424.678 345.547 424.843 345.712C425.008 345.877 425.222 345.96 425.483 345.96C425.632 345.96 425.76 345.941 425.867 345.904C425.979 345.861 426.075 345.816 426.155 345.768C426.235 345.72 426.302 345.677 426.355 345.64C426.414 345.597 426.464 345.576 426.507 345.576C426.582 345.576 426.648 345.621 426.707 345.712L427.123 346.392C426.878 346.621 426.582 346.803 426.235 346.936C425.888 347.064 425.531 347.128 425.163 347.128Z" fill="white"/>
<rect width="33" height="13" transform="matrix(1 0 0 -1 143 235)" fill="url(#paint0_linear)"/>
<line x1="143" y1="221.5" x2="176" y2="221.5" stroke="#4E4E4E"/>
<path d="M150 222L144 228" stroke="#888888" stroke-width="0.5"/>
<path d="M173 222L167 228" stroke="#888888" stroke-width="0.5"/>
<path d="M165 222L159 228" stroke="#888888" stroke-width="0.5"/>
<path d="M157 222L151 228" stroke="#888888" stroke-width="0.5"/>
<rect width="33" height="13" transform="matrix(1 0 0 -1 478 235)" fill="url(#paint1_linear)"/>
<line x1="478" y1="221.5" x2="511" y2="221.5" stroke="#4E4E4E"/>
<path d="M485 222L479 228" stroke="#888888" stroke-width="0.5"/>
<path d="M508 222L502 228" stroke="#888888" stroke-width="0.5"/>
<path d="M500 222L494 228" stroke="#888888" stroke-width="0.5"/>
<path d="M492 222L486 228" stroke="#888888" stroke-width="0.5"/>
<path d="M153.505 220.75L160 209.5L166.495 220.75H153.505Z" fill="#E4E4E4" fill-opacity="0.85" stroke="#4E4E4E" stroke-width="0.5"/>
<circle cx="494" cy="215" r="5.75" fill="#C4C4C4" stroke="#4E4E4E" stroke-width="0.5"/>
<circle cx="160" cy="205.5" r="3.5" fill="#CADEFC" stroke="black" stroke-width="0.5"/>
<circle cx="494" cy="205.5" r="3.5" fill="#CADEFC" stroke="black" stroke-width="0.5"/>
<path d="M318.363 254.048H320.519V247.209C320.519 247.004 320.526 246.796 320.54 246.586L318.748 248.119C318.702 248.156 318.655 248.184 318.608 248.203C318.562 248.217 318.517 248.224 318.475 248.224C318.405 248.224 318.342 248.21 318.286 248.182C318.23 248.149 318.188 248.112 318.16 248.07L317.768 247.531L320.75 244.948H321.765V254.048H323.739V255H318.363V254.048ZM331.322 245.515C331.322 245.692 331.266 245.839 331.154 245.956C331.042 246.068 330.853 246.124 330.587 246.124H327.437L326.975 248.756C327.497 248.644 327.98 248.588 328.424 248.588C328.946 248.588 329.406 248.665 329.803 248.819C330.204 248.973 330.54 249.185 330.811 249.456C331.081 249.727 331.284 250.046 331.42 250.415C331.56 250.784 331.63 251.185 331.63 251.619C331.63 252.151 331.536 252.632 331.35 253.061C331.163 253.49 330.906 253.859 330.58 254.167C330.258 254.47 329.877 254.704 329.439 254.867C329 255.03 328.526 255.112 328.018 255.112C327.724 255.112 327.441 255.082 327.171 255.021C326.9 254.965 326.648 254.888 326.415 254.79C326.181 254.692 325.964 254.58 325.764 254.454C325.563 254.328 325.386 254.195 325.232 254.055L325.61 253.523C325.694 253.402 325.806 253.341 325.946 253.341C326.034 253.341 326.137 253.378 326.254 253.453C326.375 253.523 326.52 253.602 326.688 253.691C326.856 253.78 327.052 253.861 327.276 253.936C327.504 254.006 327.775 254.041 328.088 254.041C328.438 254.041 328.753 253.985 329.033 253.873C329.313 253.761 329.551 253.602 329.747 253.397C329.947 253.187 330.101 252.937 330.209 252.648C330.316 252.359 330.37 252.034 330.37 251.675C330.37 251.362 330.323 251.08 330.23 250.828C330.141 250.576 330.003 250.361 329.817 250.184C329.635 250.007 329.406 249.869 329.131 249.771C328.855 249.673 328.533 249.624 328.165 249.624C327.913 249.624 327.651 249.645 327.381 249.687C327.11 249.729 326.83 249.797 326.541 249.89L325.757 249.659L326.569 244.969H331.322V245.515ZM337.621 244.689V250.758H337.943C338.036 250.758 338.113 250.746 338.174 250.723C338.234 250.695 338.302 250.641 338.377 250.562L340.617 248.161C340.687 248.086 340.757 248.026 340.827 247.979C340.897 247.932 340.99 247.909 341.107 247.909H342.241L339.63 250.688C339.564 250.767 339.499 250.837 339.434 250.898C339.373 250.959 339.303 251.012 339.224 251.059C339.308 251.115 339.382 251.18 339.448 251.255C339.518 251.325 339.583 251.407 339.644 251.5L342.416 255H341.296C341.193 255 341.104 254.981 341.03 254.944C340.96 254.902 340.892 254.839 340.827 254.755L338.496 251.85C338.426 251.752 338.356 251.689 338.286 251.661C338.216 251.628 338.111 251.612 337.971 251.612H337.621V255H336.368V244.689H337.621Z" fill="white"/>
<path d="M506.694 89.857C507.119 89.857 507.511 89.9177 507.87 90.039C508.23 90.1603 508.538 90.333 508.794 90.557C509.056 90.781 509.259 91.0517 509.403 91.369C509.548 91.6863 509.62 92.0387 509.62 92.426C509.62 92.7433 509.578 93.028 509.494 93.28C509.415 93.5273 509.298 93.7467 509.144 93.938C508.995 94.1247 508.813 94.2833 508.598 94.414C508.384 94.5447 508.143 94.6497 507.877 94.729C508.531 94.9017 509.021 95.191 509.347 95.597C509.679 96.003 509.844 96.5117 509.844 97.123C509.844 97.585 509.756 98.0003 509.578 98.369C509.406 98.7377 509.168 99.0527 508.864 99.314C508.561 99.5707 508.206 99.769 507.8 99.909C507.399 100.044 506.967 100.112 506.505 100.112C505.973 100.112 505.518 100.047 505.14 99.916C504.762 99.7807 504.443 99.5963 504.181 99.363C503.92 99.1297 503.705 98.8543 503.537 98.537C503.369 98.215 503.227 97.8673 503.11 97.494L503.642 97.27C503.74 97.228 503.838 97.207 503.936 97.207C504.03 97.207 504.111 97.228 504.181 97.27C504.256 97.3073 504.312 97.368 504.349 97.452C504.359 97.4707 504.368 97.4917 504.377 97.515C504.387 97.5337 504.396 97.5547 504.405 97.578C504.471 97.7133 504.55 97.8673 504.643 98.04C504.737 98.208 504.863 98.3667 505.021 98.516C505.18 98.6653 505.376 98.7913 505.609 98.894C505.847 98.9967 506.141 99.048 506.491 99.048C506.841 99.048 507.147 98.992 507.408 98.88C507.674 98.7633 507.894 98.614 508.066 98.432C508.244 98.25 508.377 98.047 508.465 97.823C508.554 97.599 508.598 97.3773 508.598 97.158C508.598 96.8873 508.561 96.64 508.486 96.416C508.416 96.192 508.286 95.9983 508.094 95.835C507.908 95.6717 507.646 95.5433 507.31 95.45C506.979 95.3567 506.552 95.31 506.029 95.31V94.407C506.454 94.4023 506.816 94.3557 507.114 94.267C507.418 94.1783 507.665 94.057 507.856 93.903C508.048 93.749 508.185 93.5647 508.269 93.35C508.358 93.1353 508.402 92.8973 508.402 92.636C508.402 92.3467 508.356 92.0947 508.262 91.88C508.174 91.6653 508.05 91.488 507.891 91.348C507.733 91.208 507.544 91.103 507.324 91.033C507.11 90.963 506.876 90.928 506.624 90.928C506.372 90.928 506.139 90.9653 505.924 91.04C505.71 91.1147 505.518 91.2197 505.35 91.355C505.187 91.4857 505.049 91.6443 504.937 91.831C504.825 92.013 504.741 92.2113 504.685 92.426C504.648 92.5613 504.592 92.6593 504.517 92.72C504.443 92.7807 504.347 92.811 504.23 92.811C504.207 92.811 504.181 92.811 504.153 92.811C504.13 92.8063 504.102 92.8017 504.069 92.797L503.418 92.685C503.484 92.2277 503.61 91.824 503.796 91.474C503.983 91.1193 504.219 90.823 504.503 90.585C504.793 90.347 505.122 90.1673 505.49 90.046C505.864 89.92 506.265 89.857 506.694 89.857ZM517.322 90.515C517.322 90.6923 517.266 90.8393 517.154 90.956C517.042 91.068 516.853 91.124 516.587 91.124H513.437L512.975 93.756C513.497 93.644 513.98 93.588 514.424 93.588C514.946 93.588 515.406 93.665 515.803 93.819C516.204 93.973 516.54 94.1853 516.811 94.456C517.081 94.7267 517.284 95.0463 517.42 95.415C517.56 95.7837 517.63 96.185 517.63 96.619C517.63 97.151 517.536 97.6317 517.35 98.061C517.163 98.4903 516.906 98.859 516.58 99.167C516.258 99.4703 515.877 99.7037 515.439 99.867C515 100.03 514.526 100.112 514.018 100.112C513.724 100.112 513.441 100.082 513.171 100.021C512.9 99.965 512.648 99.888 512.415 99.79C512.181 99.692 511.964 99.58 511.764 99.454C511.563 99.328 511.386 99.195 511.232 99.055L511.61 98.523C511.694 98.4017 511.806 98.341 511.946 98.341C512.034 98.341 512.137 98.3783 512.254 98.453C512.375 98.523 512.52 98.6023 512.688 98.691C512.856 98.7797 513.052 98.8613 513.276 98.936C513.504 99.006 513.775 99.041 514.088 99.041C514.438 99.041 514.753 98.985 515.033 98.873C515.313 98.761 515.551 98.6023 515.747 98.397C515.947 98.187 516.101 97.9373 516.209 97.648C516.316 97.3587 516.37 97.0343 516.37 96.675C516.37 96.3623 516.323 96.08 516.23 95.828C516.141 95.576 516.003 95.3613 515.817 95.184C515.635 95.0067 515.406 94.869 515.131 94.771C514.855 94.673 514.533 94.624 514.165 94.624C513.913 94.624 513.651 94.645 513.381 94.687C513.11 94.729 512.83 94.7967 512.541 94.89L511.757 94.659L512.569 89.969H517.322V90.515ZM523.621 89.689V95.758H523.943C524.036 95.758 524.113 95.7463 524.174 95.723C524.234 95.695 524.302 95.6413 524.377 95.562L526.617 93.161C526.687 93.0863 526.757 93.0257 526.827 92.979C526.897 92.9323 526.99 92.909 527.107 92.909H528.241L525.63 95.688C525.564 95.7673 525.499 95.8373 525.434 95.898C525.373 95.9587 525.303 96.0123 525.224 96.059C525.308 96.115 525.382 96.1803 525.448 96.255C525.518 96.325 525.583 96.4067 525.644 96.5L528.416 100H527.296C527.193 100 527.104 99.9813 527.03 99.944C526.96 99.902 526.892 99.839 526.827 99.755L524.496 96.85C524.426 96.752 524.356 96.689 524.286 96.661C524.216 96.6283 524.111 96.612 523.971 96.612H523.621V100H522.368V89.689H523.621Z" fill="white"/>
<path d="M326.646 239.354C326.842 239.549 327.158 239.549 327.354 239.354L330.536 236.172C330.731 235.976 330.731 235.66 330.536 235.464C330.34 235.269 330.024 235.269 329.828 235.464L327 238.293L324.172 235.464C323.976 235.269 323.66 235.269 323.464 235.464C323.269 235.66 323.269 235.976 323.464 236.172L326.646 239.354ZM326.5 212L326.5 239L327.5 239L327.5 212L326.5 212Z" fill="#B8B8B8"/>
<path d="M529.354 79.3536C529.549 79.1583 529.549 78.8417 529.354 78.6464L526.172 75.4645C525.976 75.2692 525.66 75.2692 525.464 75.4645C525.269 75.6597 525.269 75.9763 525.464 76.1716L528.293 79L525.464 81.8284C525.269 82.0237 525.269 82.3403 525.464 82.5355C525.66 82.7308 525.976 82.7308 526.172 82.5355L529.354 79.3536ZM502 79.5H529V78.5H502V79.5Z" fill="#B8B8B8"/>
<defs>
<linearGradient id="paint0_linear" x1="16.5" y1="0" x2="16.5" y2="13" gradientUnits="userSpaceOnUse">
<stop stop-color="#C4C4C4" stop-opacity="0"/>
<stop offset="0.53125" stop-color="#CFD4B5" stop-opacity="0.385417"/>
<stop offset="0.880208" stop-color="#FAECA2" stop-opacity="0.74"/>
</linearGradient>
<linearGradient id="paint1_linear" x1="16.5" y1="0" x2="16.5" y2="13" gradientUnits="userSpaceOnUse">
<stop stop-color="#C4C4C4" stop-opacity="0"/>
<stop offset="0.53125" stop-color="#CFD4B5" stop-opacity="0.385417"/>
<stop offset="0.880208" stop-color="#FAECA2" stop-opacity="0.74"/>
</linearGradient>
</defs>
</svg>
