<svg width="409" height="211" viewBox="0 0 409 211" fill="none" xmlns="http://www.w3.org/2000/svg">
<line x1="368.199" y1="145.399" x2="206.199" y2="23.3994" stroke="white"/>
<line x1="206.2" y1="144.6" x2="368.319" y2="22.7592" stroke="white"/>
<line x1="204" y1="144" x2="204" y2="24" stroke="white"/>
<line x1="40.5" y1="147.5" x2="200.5" y2="147.5" stroke="white"/>
<line x1="207.5" y1="147.5" x2="367.5" y2="147.5" stroke="white"/>
<line x1="371" y1="144" x2="371" y2="24" stroke="white"/>
<line x1="207.5" y1="20.5" x2="367.5" y2="20.5" stroke="white"/>
<line x1="39.1996" y1="144.6" x2="201.319" y2="22.7592" stroke="white"/>
<rect x="222" y="163" width="28" height="28" fill="#C4C4C4"/>
<rect width="33" height="13" transform="matrix(1 0 0 -1 20 177)" fill="url(#paint0_linear)"/>
<line x1="20" y1="163.5" x2="53" y2="163.5" stroke="#4E4E4E"/>
<path d="M27 164L21 170" stroke="#888888" stroke-width="0.5"/>
<path d="M50 164L44 170" stroke="#888888" stroke-width="0.5"/>
<path d="M42 164L36 170" stroke="#888888" stroke-width="0.5"/>
<path d="M34 164L28 170" stroke="#888888" stroke-width="0.5"/>
<path d="M30.5048 162.75L37 151.5L43.4952 162.75H30.5048Z" fill="#E4E4E4" fill-opacity="0.85" stroke="#4E4E4E" stroke-width="0.5"/>
<rect width="33" height="13" transform="matrix(1 0 0 -1 355 177)" fill="url(#paint1_linear)"/>
<line x1="355" y1="163.5" x2="388" y2="163.5" stroke="#4E4E4E"/>
<path d="M362 164L356 170" stroke="#888888" stroke-width="0.5"/>
<path d="M385 164L379 170" stroke="#888888" stroke-width="0.5"/>
<path d="M377 164L371 170" stroke="#888888" stroke-width="0.5"/>
<path d="M369 164L363 170" stroke="#888888" stroke-width="0.5"/>
<circle cx="371" cy="157" r="5.75" fill="#C4C4C4" stroke="#4E4E4E" stroke-width="0.5"/>
<circle cx="204" cy="147.5" r="3.5" fill="#CADEFC" stroke="black" stroke-width="0.5"/>
<circle cx="371" cy="147.5" r="3.5" fill="#CADEFC" stroke="black" stroke-width="0.5"/>
<circle cx="371" cy="20.5" r="3.5" fill="#CADEFC" stroke="black" stroke-width="0.5"/>
<circle cx="204" cy="20.5" r="3.5" fill="#CADEFC" stroke="black" stroke-width="0.5"/>
<circle cx="37" cy="147.5" r="3.5" fill="#CADEFC" stroke="black" stroke-width="0.5"/>
<path d="M203.646 197.354C203.842 197.549 204.158 197.549 204.354 197.354L207.536 194.172C207.731 193.976 207.731 193.66 207.536 193.464C207.34 193.269 207.024 193.269 206.828 193.464L204 196.293L201.172 193.464C200.976 193.269 200.66 193.269 200.464 193.464C200.269 193.66 200.269 193.976 200.464 194.172L203.646 197.354ZM203.5 157L203.5 197L204.5 197L204.5 157L203.5 157Z" fill="#B8B8B8"/>
<path d="M239.434 171.969V173.075H234.618V176.582H238.734V177.688H234.618V182H233.253V171.969H239.434Z" fill="#4E4E4E"/>
<defs>
<linearGradient id="paint0_linear" x1="16.5" y1="0" x2="16.5" y2="13" gradientUnits="userSpaceOnUse">
<stop stop-color="#C4C4C4" stop-opacity="0"/>
<stop offset="0.53125" stop-color="#CECECE" stop-opacity="0.385417"/>
<stop offset="0.880208" stop-color="#D1D1D1" stop-opacity="0.74"/>
</linearGradient>
<linearGradient id="paint1_linear" x1="16.5" y1="0" x2="16.5" y2="13" gradientUnits="userSpaceOnUse">
<stop stop-color="#C4C4C4" stop-opacity="0"/>
<stop offset="0.53125" stop-color="#CECECE" stop-opacity="0.385417"/>
<stop offset="0.880208" stop-color="#D1D1D1" stop-opacity="0.74"/>
</linearGradient>
</defs>
</svg>
